<svg width="579" height="289" viewBox="0 0 579 289" fill="none" xmlns="http://www.w3.org/2000/svg">
<path d="M586.5 288H0C222.989 143.636 351.115 90.9796 586.5 60V288Z" fill="#EEEEE5"/>
<path d="M259.156 134.331C257.891 135.119 257.345 135.816 257.036 137.26C256.818 138.43 257.622 139.362 258.648 139.404C258.826 140.072 259.327 140.694 259.988 140.852C259.833 141.703 260.107 142.518 261.12 143.228C261.762 143.61 262.654 143.692 263.509 143.535C263.181 144.59 264.324 145.519 265.339 145.329C265.475 145.329 265.627 145.257 265.787 145.217C266.407 145.724 267.321 145.836 267.984 145.174C268.022 145.137 268.059 145.1 268.078 145.057C268.078 145.1 268.078 145.1 268.078 145.137C268.099 145.836 268.469 146.386 268.975 146.693C268.741 147.356 268.509 147.975 268.371 148.715C268.139 149.772 269.01 151.062 270.198 150.674C271.794 150.205 273.059 149.187 274.188 148.055C274.244 148.255 274.34 148.408 274.441 148.565C274.01 150.437 273.855 152.306 274.151 154.255C274.324 155.31 275.648 155.814 276.525 155.347C276.642 155.272 276.735 155.189 276.831 155.117C276.676 157.219 276.791 159.32 277.34 161.277C277.646 162.401 278.741 162.791 279.772 162.366C281.072 161.862 282.044 160.922 282.806 159.792C283.078 160.102 283.389 160.38 283.757 160.612C284.322 160.962 285.214 160.962 285.683 160.415C286.125 159.934 286.495 159.405 286.812 158.85C287.033 158.471 287.196 158.065 287.364 157.662C287.425 157.51 287.513 157.373 287.569 157.219C287.745 157.256 287.918 157.256 288.131 157.219C288.64 157.144 289.085 156.986 289.511 156.783C289.66 157.08 289.83 157.363 290.017 157.632C290.068 157.704 290.123 157.769 290.177 157.838C290.318 158.022 290.467 158.196 290.63 158.356C290.704 158.431 290.784 158.5 290.864 158.57C291.029 158.711 291.205 158.831 291.389 158.941C291.471 158.989 291.549 159.042 291.634 159.085C291.908 159.216 292.196 159.32 292.51 159.365C292.801 159.405 293.056 159.32 293.307 159.285C293.328 159.365 293.349 159.448 293.365 159.523C293.448 159.776 293.552 160.041 293.669 160.305C293.722 160.431 293.786 160.556 293.847 160.681C293.911 160.812 293.975 160.943 294.047 161.074C294.135 161.237 294.223 161.394 294.319 161.552C294.362 161.619 294.404 161.683 294.447 161.747C294.844 162.364 295.302 162.911 295.805 163.325C295.821 163.338 295.837 163.354 295.853 163.367C296.026 163.506 296.197 163.621 296.378 163.72C296.399 163.731 296.421 163.741 296.442 163.752C296.629 163.851 296.815 163.934 297.007 163.979C297.073 164.016 297.129 164.048 297.199 164.08C297.694 164.251 298.15 164.315 298.581 164.313C298.77 164.315 298.938 164.259 299.117 164.233C299.271 164.206 299.436 164.211 299.585 164.163C299.83 164.366 300.097 164.505 300.379 164.601C300.491 164.644 300.603 164.673 300.72 164.694C300.781 164.702 300.84 164.716 300.904 164.719C301.12 164.732 301.341 164.716 301.57 164.63C303.107 164.083 303.808 162.911 304.178 161.512C304.388 161.629 304.604 161.664 304.814 161.744C305.225 162.289 305.731 162.796 306.237 163.226C306.858 164.825 307.889 165.69 309.564 165.295C312.5 164.63 313.376 161.819 313.493 158.393C313.959 158.238 314.346 158.004 314.716 157.731C315.438 158.511 316.328 158.861 317.422 158.351C317.675 158.238 317.867 158.036 318.083 157.881C318.099 157.958 318.123 158.036 318.158 158.121C318.626 159.133 319.852 159.133 320.611 158.511C322.049 157.411 322.867 155.937 323.432 154.332C324.111 155.742 325.065 156.786 326.522 156.636C327.087 156.594 327.558 156.407 327.984 156.164C328.507 157.333 329.284 158.433 330.451 159.285C331.229 159.83 332.436 159.285 332.689 158.391C333.038 157.064 333.195 155.779 333.235 154.452C333.605 154.452 333.954 154.452 334.362 154.378C335.134 154.185 335.76 153.691 336.304 153.059C337.497 153.259 338.669 152.829 339.772 152.114C340.273 152.306 340.877 152.306 341.482 152.268C341.559 152.698 341.754 153.088 342.161 153.478C342.374 153.665 342.614 153.868 342.867 153.983C342.905 154.412 343.123 154.797 343.525 155.189C345.257 156.746 346.97 156.241 348.602 155.077C348.874 155.347 349.186 155.536 349.593 155.662C349.609 155.814 349.631 156.009 349.673 156.201C349.767 156.871 350.939 157.331 351.618 156.746C352.06 156.361 352.452 155.969 352.785 155.536C353.075 155.699 353.424 155.814 353.813 155.779C353.813 156.009 353.909 156.201 354.047 156.404C354.303 157.024 354.591 157.608 354.985 158.198C355.334 158.658 356.21 158.698 356.815 158.505C356.996 158.42 357.161 158.335 357.329 158.249C357.902 159.261 358.472 160.276 359.071 161.274C366.634 173.943 374.159 184.978 375.422 200.178C376.011 206.926 375.563 213.624 375.249 220.334C374.996 226.924 375.56 233.513 375.755 240.103C376.064 250.59 372.414 258.931 367.396 267H388.999H391.045H406.908C406.229 263.841 405.568 260.648 405.084 257.452C403.917 249.693 404.809 241.739 404.966 233.906C405.124 226.614 406.285 219.402 405.198 212.185C404.087 204.899 401.096 196.593 405.041 189.92C408.27 184.426 413.23 179.863 417.1 174.835C420.092 170.956 422.574 166.732 424.631 162.313C425.02 162.51 425.531 162.47 425.851 162.134C426.338 161.627 426.61 161.117 426.725 160.612C427.052 161.079 427.929 161.194 428.419 160.655C428.92 160.145 429.237 159.597 429.45 159.053C429.604 159.013 429.759 158.975 429.916 158.895C430.323 158.698 430.672 158.431 430.987 158.161C431.2 158.273 431.41 158.391 431.669 158.508C432.287 158.698 433.147 158.66 433.512 158.201C433.904 157.611 434.194 157.029 434.447 156.407C434.586 156.204 434.684 156.012 434.684 155.782C435.07 155.817 435.401 155.702 435.715 155.539C436.043 155.972 436.432 156.367 436.879 156.749C437.561 157.333 438.73 156.874 438.845 156.204C438.864 156.012 438.882 155.814 438.901 155.665C439.311 155.539 439.623 155.35 439.871 155.08C441.509 156.244 443.24 156.749 444.967 155.192C445.374 154.8 445.574 154.415 445.63 153.985C445.883 153.87 446.096 153.667 446.33 153.481C446.719 153.091 446.932 152.701 447.01 152.271C447.617 152.311 448.198 152.311 448.723 152.116C450.222 153.088 451.855 153.555 453.467 152.589C454.138 152.207 454.479 151.782 454.588 151.337C455.3 152.826 456.258 154.039 457.633 154.38C458.041 154.455 458.408 154.455 458.76 154.455C458.816 155.782 458.957 157.066 459.306 158.393C459.559 159.288 460.766 159.832 461.56 159.288C462.71 158.436 463.485 157.336 464.01 156.167C464.442 156.41 464.924 156.596 465.491 156.639C466.948 156.789 467.878 155.745 468.563 154.335C469.125 155.94 469.945 157.411 471.384 158.513C472.159 159.136 473.366 159.136 473.837 158.124C473.877 158.038 473.893 157.961 473.93 157.883C474.125 158.038 474.338 158.241 474.591 158.353C475.662 158.861 476.554 158.513 477.279 157.734C477.649 158.006 478.035 158.241 478.504 158.396C478.619 161.822 479.495 164.633 482.431 165.298C484.127 165.693 485.156 164.825 485.758 163.229C486.282 162.799 486.77 162.292 487.178 161.747C487.409 161.667 487.625 161.632 487.817 161.515C488.19 162.914 488.888 164.086 490.425 164.633C490.654 164.718 490.878 164.735 491.096 164.721C491.157 164.719 491.213 164.708 491.272 164.7C491.4 164.678 491.525 164.646 491.647 164.598C491.919 164.5 492.178 164.363 492.415 164.166C492.545 164.211 492.697 164.203 492.838 164.23C493.033 164.262 493.214 164.321 493.419 164.318C493.85 164.321 494.306 164.257 494.801 164.086C494.871 164.054 494.924 164.022 494.991 163.984C495.188 163.939 495.379 163.856 495.571 163.755C495.59 163.747 495.611 163.736 495.63 163.725C495.803 163.629 495.971 163.52 496.139 163.386C496.179 163.357 496.216 163.322 496.253 163.29C496.685 162.922 497.087 162.457 497.441 161.931C497.54 161.787 497.636 161.643 497.726 161.491C497.793 161.378 497.854 161.266 497.918 161.154C498.017 160.978 498.105 160.799 498.19 160.62C498.235 160.524 498.283 160.431 498.323 160.334C498.443 160.059 498.549 159.79 498.635 159.528C498.653 159.453 498.675 159.371 498.717 159.29C498.946 159.328 499.218 159.411 499.49 159.371C499.804 159.325 500.092 159.221 500.366 159.09C500.449 159.05 500.526 158.997 500.603 158.951C500.79 158.842 500.971 158.719 501.136 158.575C501.213 158.508 501.288 158.441 501.362 158.367C501.525 158.204 501.677 158.028 501.821 157.841C501.871 157.774 501.927 157.71 501.978 157.638C502.164 157.368 502.335 157.085 502.484 156.789C502.907 156.992 503.374 157.149 503.864 157.224C504.074 157.261 504.25 157.259 504.439 157.224C504.647 157.79 504.887 158.343 505.19 158.863C505.505 159.416 505.875 159.939 506.315 160.42C506.778 160.967 507.676 160.967 508.238 160.617C508.608 160.385 508.92 160.11 509.191 159.798C509.972 160.927 510.923 161.864 512.228 162.372C513.256 162.796 514.327 162.406 514.658 161.282C515.198 159.328 515.337 157.224 515.145 155.123C515.26 155.195 515.356 155.277 515.473 155.352C516.349 155.819 517.689 155.312 517.849 154.26C518.161 152.314 518.003 150.442 517.556 148.57C517.654 148.41 517.753 148.261 517.809 148.061C518.936 149.195 520.201 150.213 521.799 150.68C523.003 151.067 523.856 149.777 523.629 148.72C523.491 147.983 523.254 147.361 523.022 146.699C523.467 146.426 523.765 145.946 523.85 145.364C523.925 145.318 523.986 145.273 524.05 145.204C524.708 145.828 525.622 145.719 526.211 145.22C526.368 145.26 526.522 145.332 526.677 145.332C527.673 145.521 528.816 144.595 528.488 143.538C529.343 143.695 530.238 143.612 530.878 143.231C531.909 142.52 532.162 141.709 532.026 140.854C532.689 140.697 533.174 140.075 533.35 139.407C534.399 139.364 535.18 138.435 534.964 137.263C534.671 135.819 534.109 135.122 532.844 134.334C532.748 134.294 532.67 134.259 532.588 134.214C532.593 134.211 532.598 134.209 532.604 134.206C532.785 134.161 532.945 134.091 533.094 133.984C533.123 133.966 533.147 133.939 533.174 133.92C533.296 133.822 533.408 133.72 533.496 133.587C533.547 133.512 533.576 133.424 533.613 133.338C533.661 133.226 533.72 133.127 533.744 133.002C533.789 132.78 533.8 132.535 533.752 132.268C533.464 130.903 532.918 130.204 531.711 129.504C531.128 129.152 530.526 129.267 530.076 129.579C530.015 129.579 529.961 129.606 529.903 129.616C529.434 129.029 528.88 128.45 528.28 127.878C527.918 127.251 527.473 126.653 526.988 126.113C526.991 126.113 526.996 126.113 526.999 126.113C527.348 126.132 527.7 126.14 528.051 126.127C528.462 126.119 528.874 126.092 529.303 126.028C530.097 125.913 530.545 125.179 530.177 124.437C529.863 123.817 529.498 123.246 529.114 122.701C529.042 122.6 528.968 122.506 528.893 122.407C528.557 121.959 528.201 121.529 527.825 121.126C527.745 121.04 527.668 120.958 527.588 120.875C527.151 120.429 526.693 120.004 526.208 119.609C526.189 119.596 526.176 119.58 526.157 119.567C525.625 119.137 525.068 118.733 524.484 118.357C524.482 118.357 524.482 118.354 524.479 118.354C524.538 118.194 524.586 118.031 524.599 117.855C524.618 117.671 524.612 117.481 524.572 117.297C524.149 115.463 523.296 114.085 522.266 112.86C522.266 112.844 522.263 112.83 522.26 112.814C523.952 112.926 525.489 112.569 526.378 110.902C526.584 110.518 526.695 110.139 526.757 109.77C527.002 109.693 527.258 109.693 527.508 109.616C528.443 109.378 528.869 108.406 528.659 107.506C528.227 105.677 527.377 104.27 526.301 103.026C528.017 103.178 529.572 102.828 530.483 101.112C531.453 99.2453 530.619 97.5632 529.375 96.0841C529.743 95.8491 530.057 95.4593 530.11 95.0294C530.214 94.4447 530.257 93.8974 530.249 93.3794C530.244 93.051 530.185 92.7573 530.14 92.4556C530.113 92.2847 530.113 92.0978 530.073 91.9349C529.977 91.5184 529.831 91.1313 529.66 90.7628C529.647 90.7334 529.642 90.6987 529.626 90.672C528.669 88.6829 526.69 87.3452 524.325 86.3547C524.309 86.3493 524.293 86.3387 524.277 86.3333C524.12 86.2425 523.952 86.1651 523.792 86.077C523.158 85.7139 522.513 85.3721 521.853 85.0491C521.778 85.0117 521.706 84.969 521.632 84.9342C521.725 84.7954 521.802 84.6352 521.866 84.459C521.877 84.435 521.89 84.4163 521.901 84.3922C522.873 84.5498 523.858 84.6272 524.879 84.5097C526.259 84.3522 526.957 82.7582 525.928 81.6982C525.497 81.263 525.033 80.8519 524.551 80.4567C524.349 80.2912 524.133 80.147 523.925 79.9895C523.648 79.7839 523.376 79.5729 523.089 79.3834C522.74 79.1511 522.375 78.9455 522.01 78.7372C521.869 78.6571 521.73 78.5717 521.586 78.4969C521.091 78.2353 520.585 78.0057 520.071 77.7947C520.041 77.7573 520.004 77.7333 519.975 77.6959C519.724 77.3916 519.458 77.1112 519.167 76.8656C519.021 76.7428 518.864 76.6413 518.709 76.5318C518.502 76.3823 518.291 76.2355 518.067 76.11C517.929 76.0325 517.785 75.9658 517.641 75.8964C517.327 75.7442 517.004 75.608 516.669 75.4905C516.637 75.4799 516.608 75.4692 516.578 75.4585C516.125 75.3036 515.657 75.1755 515.174 75.0687C514.639 74.6815 514.082 74.3291 513.504 74.014C513.486 74.0034 513.467 73.99 513.448 73.9793C513.541 73.9179 513.624 73.8485 513.712 73.7818C513.733 73.7737 513.749 73.7631 513.768 73.7524C513.888 73.707 514.008 73.6616 514.096 73.5788C514.138 73.5334 514.159 73.4854 514.194 73.4347C514.253 73.3546 514.325 73.2851 514.359 73.1917C514.546 72.9754 514.69 72.7431 514.796 72.4948C514.817 72.4468 514.831 72.396 514.849 72.348C514.927 72.1317 514.969 71.9074 514.977 71.6698C514.98 71.6298 514.999 71.5977 514.999 71.5577C515.137 71.4429 515.289 71.3547 515.443 71.28C515.835 71.3521 516.224 71.4829 516.613 71.595C517.601 71.9421 518.264 70.6953 517.838 69.913C517.761 69.7714 517.638 69.6753 517.545 69.5498C517.614 69.3229 517.606 69.0959 517.559 68.877C517.54 68.7889 517.505 68.7195 517.471 68.6367C517.412 68.5005 517.335 68.3857 517.231 68.2763C517.17 68.2122 517.119 68.1534 517.044 68.1C516.85 67.9639 516.621 67.8624 516.338 67.8491C515.99 67.8304 515.571 67.809 515.118 67.7877C514.751 67.7663 514.362 67.7396 513.941 67.7156C513.589 67.6702 513.24 67.6275 512.873 67.6141C512.987 67.5126 513.075 67.4032 513.179 67.2964C513.267 67.2083 513.352 67.1202 513.43 67.0267C513.491 66.952 513.547 66.8772 513.6 66.8024C513.723 66.6342 513.824 66.4634 513.906 66.2845C513.925 66.2417 513.952 66.2017 513.968 66.159C514.066 65.9213 514.136 65.6757 514.159 65.4194C514.159 65.414 514.159 65.406 514.159 65.398C514.181 65.1657 514.159 64.9228 514.112 64.6745C514.096 64.5917 514.069 64.5063 514.048 64.4208C513.997 64.2366 513.922 64.0497 513.832 63.8575C513.787 63.7613 513.747 63.6679 513.688 63.5691C513.528 63.2914 513.336 63.0057 513.089 62.7094C511.536 60.9151 509.567 60.8404 507.548 61.4999C508.011 59.9753 507.782 58.5389 506.224 57.6364C506.107 56.8167 505.795 55.965 505.156 55.2281C503.033 52.6863 500.816 53.3938 498.89 55.1426C498.853 55.0652 498.853 54.9504 498.818 54.8356C498.192 53.2309 496.578 51.1297 494.674 51.5222C494.884 49.2954 494.261 47.6987 492.106 47.5038C490.784 47.389 489.599 48.2835 488.624 49.4529C487.556 47.8589 486.053 46.7643 484.189 46.9565C482.71 47.0793 481.898 48.0111 481.426 49.3381C481.205 48.7908 480.955 48.2701 480.67 47.7815C480.409 47.333 480.105 46.9191 479.78 46.5266C479.905 46.3905 479.999 46.2329 480.073 46.0674C480.089 46.0354 480.094 46.0006 480.108 45.9659C480.161 45.8218 480.188 45.6749 480.19 45.5227C480.19 45.4747 480.193 45.4293 480.188 45.3785C480.169 45.181 480.124 44.9807 480.004 44.7805C479.9 44.6042 479.682 44.3826 479.418 44.1423C479.402 44.129 479.386 44.113 479.367 44.0969C478.805 43.6003 477.961 43.0103 476.946 42.4015C476.932 42.3935 476.922 42.3855 476.908 42.3775C476.394 42.0704 475.846 41.7661 475.27 41.4643C475.563 40.5939 475.361 39.8677 474.863 39.2856C474.841 39.2589 474.817 39.2322 474.793 39.2055C474.65 39.0507 474.49 38.9038 474.311 38.7703C474.285 38.7516 474.269 38.725 474.242 38.7063C474.98 38.1109 475.475 37.3446 475.606 36.3487C475.614 36.2979 475.622 36.2472 475.627 36.1965C475.656 35.8681 475.662 35.5263 475.611 35.1472C475.422 33.4331 474.159 32.8483 472.638 32.8483C472.971 31.7163 472.481 30.5495 470.558 29.6951C470.132 29.4948 469.663 29.4121 469.178 29.3747C469.133 28.9021 468.984 28.4455 468.632 28.013C468.049 27.2761 467.388 26.9183 466.669 26.8035C467.465 25.2015 467.428 23.6449 465.814 22.358C463.89 20.7934 461.983 21.4983 460.212 23.0949C459.586 22.7638 458.904 22.6891 458.184 22.7798C458.097 22.1284 457.846 21.4929 457.391 20.8842C457.249 20.6999 457.108 20.5477 456.962 20.4116C456.831 20.2807 456.698 20.1659 456.562 20.0645C456.506 19.3596 456.264 18.6975 455.776 18.1101C455.465 17.7202 455.156 17.4292 454.844 17.1862C454.761 17.1222 454.681 17.0741 454.599 17.018C454.351 16.8525 454.106 16.7297 453.858 16.6469C453.792 16.6256 453.725 16.5962 453.659 16.5802C453.025 16.4226 452.396 16.5134 451.775 16.7911C451.725 16.8125 451.674 16.8418 451.623 16.8659C451.354 16.9993 451.088 17.1595 450.822 17.3545C450.771 17.3918 450.723 17.4239 450.672 17.4613C450.374 17.6882 450.076 17.9392 449.783 18.2249C449.767 18.2062 449.748 18.1928 449.732 18.1715C449.599 18.0139 449.463 17.8644 449.303 17.7389C449.103 17.5734 448.885 17.4319 448.637 17.3304C448.597 17.0154 448.579 16.711 448.539 16.3906C448.403 15.3413 447.047 14.559 446.227 15.5389C445.699 16.1636 445.257 16.8285 444.857 17.512C444.692 17.3785 444.516 17.277 444.322 17.2183C444.111 17.1489 443.893 17.1195 443.661 17.1435C443.661 16.9379 443.613 16.735 443.547 16.5374C443.507 16.3933 443.445 16.2544 443.376 16.1156C443.099 15.101 442.737 14.1211 442.279 13.2C441.852 12.383 440.84 12.3456 440.118 12.6927C439.807 12.8102 439.551 13.0424 439.303 13.2374C439.285 13.2133 439.263 13.1946 439.245 13.1733C439.234 13.1599 439.221 13.1492 439.21 13.1359C438.858 12.7087 438.483 12.3215 438.014 12.0279C437.833 11.9184 437.662 11.8436 437.497 11.7929C437.252 10.8611 436.874 9.96129 436.288 9.14694C435.704 8.28454 434.676 8.48746 434.261 9.26709C434.146 8.45008 433.837 7.58501 433.23 6.73596C432.766 6.06846 431.89 6.14589 431.458 6.80805C431.365 6.92018 431.258 7.09907 431.163 7.25927C430.672 6.48231 430.057 5.83617 429.226 5.56117C428.968 5.48107 428.741 5.44369 428.525 5.44369C428.448 5.08858 428.408 4.74148 428.31 4.35167C428.078 3.49727 426.93 2.98731 426.131 3.53198C425.523 3.93248 424.996 4.4638 424.514 5.02984C424.394 5.16334 424.269 5.29684 424.154 5.43568C424.141 5.43301 424.122 5.43568 424.106 5.43301C423.808 5.36092 423.509 5.28349 423.16 5.32888C422.849 5.33689 422.564 5.39029 422.305 5.48641C422.185 5.52913 422.084 5.60655 421.975 5.67063C421.812 5.75874 421.655 5.84952 421.517 5.97234C421.514 5.97501 421.509 5.97501 421.503 5.98035C421.08 5.73471 420.624 5.70534 420.206 5.86554C420.148 5.88957 420.089 5.90559 420.033 5.93763C419.9 6.00972 419.783 6.1005 419.668 6.20997C419.665 6.21264 419.663 6.21531 419.663 6.21531C419.522 6.10584 419.388 5.99103 419.231 5.86554C419.324 2.98464 418.2 0.336019 415.105 0.0209617C412.09 -0.286086 411.525 2.82978 411.839 6.10584C410.846 5.36626 409.876 4.73881 409.154 4.38637C408.515 4.03127 407.835 4.42643 407.654 5.04853C407.441 5.74806 407.383 6.41556 407.42 7.07504C407.212 7.07504 407.012 7.07504 406.818 7.11242C406.482 7.16315 406.202 7.24325 405.963 7.34471C405.941 7.35539 405.931 7.36874 405.907 7.37942C405.696 7.47821 405.515 7.59035 405.377 7.72652C405.369 7.73453 405.366 7.74521 405.358 7.75322C405.22 7.89473 405.113 8.05226 405.041 8.2258C405.022 8.27119 405.022 8.32192 405.009 8.36731C404.966 8.50348 404.921 8.63965 404.911 8.79184C404.881 8.7865 404.849 8.78383 404.82 8.77849C404.695 8.74111 404.575 8.70907 404.447 8.71174C404.162 8.63164 403.874 8.55688 403.579 8.51683C403.232 8.45809 402.878 8.42872 402.516 8.45275C401.996 8.45275 401.605 8.79451 401.429 9.26976C401.317 9.18967 401.157 9.14962 401.024 9.11224C400.614 9.0268 400.126 9.187 399.817 9.49671C398.8 8.55688 397.521 8.03356 395.995 8.27653C394.468 8.03089 393.171 8.55421 392.153 9.49671C391.86 9.18967 391.378 9.0268 390.947 9.11224C390.811 9.14962 390.656 9.187 390.542 9.26976C390.366 8.79451 389.977 8.45275 389.45 8.45275C389.09 8.42872 388.741 8.46076 388.397 8.51683C388.104 8.55955 387.819 8.63164 387.537 8.71441C387.406 8.71174 387.284 8.74111 387.156 8.77849C387.129 8.78383 387.097 8.78383 387.071 8.79184C387.052 8.58358 387.007 8.38867 386.927 8.20978C386.882 8.10298 386.802 8.01754 386.733 7.92409C386.685 7.86001 386.655 7.78259 386.594 7.72385C386.453 7.58768 386.272 7.47287 386.059 7.37408C386.04 7.36607 386.032 7.35272 386.013 7.34471C385.774 7.24058 385.491 7.16315 385.156 7.11242C384.961 7.07504 384.767 7.07504 384.572 7.07504C384.593 6.41556 384.532 5.74806 384.319 5.04853C384.141 4.42643 383.461 4.03127 382.819 4.38637C382.1 4.74148 381.149 5.36626 380.158 6.10584C380.449 2.82978 379.884 -0.286086 376.871 0.0209617C373.778 0.336019 372.668 2.98464 372.747 5.86554C372.59 5.99103 372.46 6.10584 372.319 6.21531C372.311 6.2073 372.303 6.20463 372.295 6.19929C372.185 6.09516 372.076 6.00972 371.948 5.9403C371.89 5.90826 371.828 5.88957 371.764 5.86554C371.346 5.70534 370.896 5.73739 370.473 5.97768C370.307 5.8335 370.121 5.72136 369.924 5.62258C369.841 5.57719 369.767 5.51845 369.676 5.48641C369.415 5.39296 369.13 5.33689 368.818 5.32888C368.472 5.28082 368.195 5.35558 367.907 5.42767C367.886 5.43034 367.862 5.43034 367.841 5.43301C367.817 5.40097 367.785 5.37427 367.758 5.34223C367.689 5.25946 367.614 5.1847 367.545 5.1046C367.034 4.50652 366.479 3.9485 365.845 3.52931C365.046 2.98464 363.898 3.49193 363.666 4.349C363.568 4.74148 363.531 5.08591 363.475 5.44102C363.238 5.44102 363.003 5.4784 362.753 5.5585C361.919 5.8335 361.306 6.47964 360.813 7.25927C360.723 7.09907 360.63 6.91751 360.536 6.80537C360.084 6.14322 359.21 6.06579 358.746 6.73329C358.163 7.58234 357.83 8.45008 357.713 9.26442C357.324 8.48479 356.296 8.28187 355.688 9.14428C355.102 9.95862 354.724 10.8584 354.479 11.7902C354.311 11.8436 354.138 11.9157 353.957 12.0252C353.52 12.3029 353.163 12.6633 352.846 13.0585C352.801 13.1145 352.747 13.1626 352.705 13.2213C352.702 13.2267 352.697 13.2293 352.694 13.2347C352.42 13.0398 352.172 12.8075 351.86 12.69C351.154 12.3429 350.126 12.383 349.716 13.1973C349.25 14.1131 348.885 15.0903 348.605 16.0996C348.44 16.428 348.328 16.7724 348.317 17.1382C348.083 17.1142 347.862 17.1409 347.651 17.2129C347.457 17.2717 347.281 17.3731 347.119 17.5066C346.719 16.8231 346.277 16.161 345.752 15.5335C344.932 14.5563 343.573 15.3386 343.44 16.3853C343.395 16.7057 343.376 17.01 343.357 17.3251C343.115 17.4265 342.902 17.56 342.707 17.7202C342.521 17.8644 342.358 18.0326 342.209 18.2169C341.898 17.9178 341.581 17.6588 341.266 17.4212C341.248 17.4079 341.232 17.3972 341.213 17.3838C340.923 17.1702 340.632 16.994 340.339 16.8525C340.294 16.8311 340.251 16.8071 340.206 16.7884C339.58 16.5107 338.949 16.4173 338.315 16.5748C338.251 16.5908 338.184 16.6202 338.12 16.6416C337.873 16.7243 337.622 16.8498 337.374 17.018C337.295 17.0714 337.217 17.1195 337.137 17.1809C336.826 17.4239 336.517 17.7122 336.202 18.1074C335.726 18.6921 335.48 19.3543 335.425 20.0538C335.406 20.0698 335.39 20.0858 335.371 20.1019C335.267 20.182 335.166 20.2701 335.068 20.3689C334.908 20.5157 334.753 20.6759 334.607 20.8815C334.141 21.4929 333.893 22.1257 333.805 22.7798C333.083 22.6864 332.398 22.7612 331.77 23.0922C330.017 21.4929 328.112 20.7907 326.168 22.3553C324.553 23.6423 324.516 25.1988 325.329 26.8008C324.593 26.9156 323.933 27.2734 323.347 28.0103C323 28.4429 322.843 28.8994 322.825 29.372C322.337 29.4094 321.852 29.4922 321.426 29.6924C319.5 30.5441 319.013 31.7136 319.343 32.8457C317.83 32.8457 316.581 33.4331 316.37 35.1445C316.317 35.5263 316.322 35.8707 316.354 36.2018C316.36 36.2472 316.367 36.2873 316.373 36.33C316.503 37.3312 317.001 38.1028 317.739 38.7009C317.673 38.749 317.627 38.8077 317.566 38.8585C317.449 38.9519 317.34 39.048 317.241 39.1521C317.188 39.2082 317.137 39.2643 317.089 39.3257C316.959 39.4886 316.85 39.6594 316.764 39.841C316.756 39.8597 316.743 39.8784 316.732 39.8997C316.541 40.3536 316.525 40.8743 316.716 41.4563C316.684 41.475 316.655 41.491 316.623 41.5071C316.12 41.7714 315.638 42.0411 315.182 42.3107C315.068 42.3775 314.966 42.4442 314.857 42.511C314.479 42.7433 314.127 42.9702 313.805 43.1918C313.741 43.2372 313.669 43.2826 313.605 43.3253C313.243 43.5816 312.939 43.8219 312.681 44.0462C312.627 44.0943 312.582 44.1343 312.534 44.1797C312.292 44.4013 312.092 44.6096 311.993 44.7778C311.868 44.978 311.818 45.1783 311.799 45.3812C311.794 45.4293 311.796 45.472 311.796 45.5174C311.799 45.6749 311.826 45.8271 311.879 45.9713C311.89 46.0006 311.895 46.0327 311.908 46.0621C311.983 46.2276 312.076 46.3851 312.201 46.524C311.874 46.9164 311.57 47.333 311.309 47.7842C311.021 48.2701 310.765 48.7881 310.555 49.3354C310.086 48.0085 309.271 47.0766 307.793 46.9538C305.947 46.7616 304.428 47.8563 303.36 49.4503C302.39 48.2808 301.197 47.3864 299.878 47.5012C297.721 47.6961 297.097 49.2927 297.308 51.5195C295.403 51.1297 293.808 53.2283 293.168 54.8329C293.126 54.9477 293.126 55.0625 293.088 55.14C291.165 53.3938 288.965 52.6836 286.847 55.2254C286.186 55.9623 285.875 56.8167 285.755 57.6337C284.199 58.5362 283.965 59.9726 284.436 61.4972C282.409 60.8377 280.446 60.9125 278.89 62.7067C278.642 63.0004 278.453 63.2807 278.296 63.5584C278.235 63.6652 278.189 63.7693 278.139 63.8761C278.059 64.047 277.992 64.2152 277.944 64.3808C277.912 64.4876 277.883 64.5944 277.865 64.6985C277.833 64.8827 277.825 65.0616 277.83 65.2378C277.833 65.3072 277.819 65.3793 277.827 65.4461C277.854 65.6757 277.915 65.8973 278 66.1136C278.035 66.2017 278.083 66.2871 278.128 66.3752C278.195 66.5034 278.267 66.6316 278.352 66.7544C278.424 66.8585 278.498 66.9626 278.584 67.0641C278.642 67.1308 278.706 67.1976 278.768 67.2617C278.879 67.3791 278.981 67.502 279.106 67.6168C278.741 67.6301 278.395 67.6728 278.046 67.7182C277.619 67.7423 277.228 67.769 276.858 67.7903C276.41 67.8117 276 67.833 275.664 67.8517C275.374 67.8651 275.142 67.9665 274.942 68.1054C274.87 68.1534 274.822 68.2095 274.766 68.2683C274.649 68.3857 274.564 68.5139 274.503 68.6634C274.476 68.7302 274.444 68.7836 274.428 68.853C274.375 69.0773 274.364 69.3069 274.439 69.5312C274.362 69.686 274.223 69.7608 274.148 69.9156C273.717 70.6979 274.38 71.9448 275.374 71.5977C275.763 71.4856 276.149 71.3547 276.543 71.2827C276.692 71.3547 276.826 71.4429 276.999 71.5523C276.993 71.862 277.057 72.1477 277.164 72.4174C277.169 72.4281 277.172 72.4388 277.175 72.4494C277.292 72.7325 277.46 72.9995 277.678 73.2398C277.705 73.3065 277.753 73.3572 277.793 73.416C277.83 73.472 277.851 73.5281 277.899 73.5788C278.006 73.675 278.136 73.7364 278.277 73.7818C278.365 73.8458 278.445 73.9153 278.541 73.9767C278.53 73.982 278.522 73.99 278.512 73.9954C277.931 74.3104 277.377 74.6655 276.842 75.0553C276.839 75.058 276.836 75.058 276.834 75.0607C276.333 75.1701 275.848 75.3036 275.379 75.4638C275.006 75.592 274.644 75.7415 274.298 75.9124C274.183 75.9685 274.069 76.0219 273.957 76.0806C273.696 76.2248 273.448 76.3957 273.205 76.5719C273.083 76.66 272.955 76.7401 272.841 76.8362C272.508 77.1139 272.196 77.4263 271.914 77.7814C271.399 77.9923 270.893 78.2246 270.4 78.4863C270.262 78.5583 270.129 78.6411 269.993 78.7185C269.623 78.9295 269.255 79.1377 268.901 79.3754C268.637 79.5516 268.387 79.7438 268.131 79.9334C267.896 80.1069 267.657 80.2698 267.433 80.454C266.953 80.8438 266.493 81.255 266.058 81.6849C265.028 82.7449 265.749 84.3388 267.108 84.4964C268.131 84.6165 269.122 84.5364 270.099 84.3789C270.166 84.5711 270.246 84.7447 270.345 84.8942C270.35 84.9022 270.353 84.9156 270.358 84.9236C270.289 84.9556 270.225 84.9983 270.155 85.0304C269.481 85.3588 268.823 85.7085 268.176 86.0797C268.024 86.1651 267.862 86.2372 267.71 86.3253C267.641 86.3547 267.577 86.3894 267.505 86.4214C267.108 86.5923 266.722 86.7685 266.349 86.9634C266.325 86.9741 266.303 86.9901 266.28 87.0008C264.537 87.9113 263.123 89.0834 262.358 90.6667C262.345 90.6961 262.337 90.7308 262.324 90.7628C262.153 91.1339 262.004 91.5184 261.908 91.9349C261.876 92.0684 261.876 92.2206 261.855 92.3595C261.799 92.6905 261.738 93.0189 261.732 93.3794C261.724 93.8947 261.767 94.442 261.868 95.0241C261.951 95.4513 262.241 95.8438 262.609 96.0787C261.365 97.5579 260.531 99.24 261.519 101.106C262.414 102.823 263.97 103.17 265.685 103.021C264.636 104.265 263.754 105.669 263.328 107.501C263.115 108.401 263.565 109.373 264.479 109.61C264.734 109.685 264.982 109.685 265.238 109.765C265.297 110.136 265.406 110.51 265.606 110.897C266.501 112.566 268.032 112.921 269.724 112.809C269.724 112.825 269.719 112.841 269.719 112.857C269.199 113.468 268.733 114.122 268.344 114.849C267.95 115.572 267.638 116.373 267.43 117.289C267.38 117.479 267.372 117.676 267.393 117.866C267.406 118.034 267.454 118.189 267.51 118.344C267.5 118.352 267.489 118.36 267.478 118.368C266.927 118.725 266.394 119.107 265.885 119.516C265.797 119.585 265.717 119.665 265.632 119.737C265.227 120.076 264.838 120.432 264.468 120.805C264.343 120.931 264.226 121.062 264.106 121.19C263.773 121.55 263.461 121.929 263.163 122.325C263.062 122.458 262.958 122.586 262.862 122.725C262.489 123.262 262.137 123.82 261.831 124.429C261.445 125.168 261.89 125.905 262.705 126.02C263.12 126.081 263.533 126.108 263.938 126.119C264.29 126.132 264.641 126.121 264.99 126.105C264.993 126.105 264.996 126.105 264.996 126.105C264.964 126.143 264.94 126.188 264.908 126.225C264.471 126.725 264.069 127.267 263.736 127.835C263.733 127.841 263.728 127.846 263.722 127.851C263.118 128.428 262.558 129.013 262.084 129.606C262.031 129.6 261.983 129.574 261.929 129.574C261.455 129.261 260.856 129.146 260.291 129.499C259.066 130.201 258.522 130.898 258.251 132.262C258.197 132.532 258.205 132.78 258.248 133.007C258.267 133.101 258.312 133.175 258.347 133.264C258.392 133.378 258.432 133.496 258.501 133.592C258.581 133.712 258.685 133.803 258.794 133.894C258.831 133.923 258.863 133.955 258.903 133.979C259.055 134.086 259.223 134.153 259.412 134.201C259.415 134.201 259.417 134.203 259.42 134.203C259.327 134.254 259.25 134.291 259.156 134.331ZM473.376 48.2167C473.326 48.1607 473.256 48.1206 473.203 48.0672C473.203 48.0539 473.203 48.0405 473.203 48.0191C473.203 47.9417 473.16 47.867 473.16 47.7895C473.23 47.8136 473.299 47.8456 473.371 47.867C473.374 47.9844 473.368 48.0939 473.376 48.2167ZM271.114 92.541C271.125 92.5197 271.128 92.4956 271.138 92.4743C271.285 92.1432 271.543 91.764 271.836 91.3769C271.751 91.6412 271.692 91.8949 271.639 92.1939C271.599 92.4262 271.618 92.5757 271.618 92.7786C271.546 92.832 271.49 92.8641 271.423 92.9068C271.421 92.9068 271.418 92.9095 271.418 92.9095C271.293 92.9922 271.16 93.0803 271.05 93.1524C271.048 93.1418 271.034 93.1364 271.032 93.1257C271.016 93.075 271.021 93.0163 271.024 92.9575C271.032 92.832 271.053 92.6959 271.114 92.541ZM520.859 92.517C520.936 92.6985 520.966 92.8587 520.966 93.0029C520.963 93.035 520.971 93.0723 520.963 93.1017C520.96 93.1204 520.939 93.1284 520.934 93.1444C520.75 93.035 520.566 92.9255 520.361 92.776C520.361 92.573 520.382 92.4235 520.34 92.1912C520.302 91.9029 520.225 91.6386 520.145 91.3796C520.441 91.7694 520.705 92.1539 520.848 92.4849C520.854 92.4983 520.854 92.5063 520.859 92.517ZM412.66 167.388C412.311 167.858 411.94 168.248 411.573 168.675C410.19 169.263 408.925 170.197 407.7 171.092C406.924 171.679 406.202 172.189 405.486 172.579C403.999 173.455 403.115 174.079 402.582 174.549C404.077 170.608 405.675 166.705 407.22 162.751C407.375 162.671 407.521 162.607 407.681 162.518C407.425 164.51 407.894 166.454 410.462 166.264C413.083 166.061 414.021 164.433 413.946 162.671C414.085 162.593 414.197 162.516 414.314 162.433C414.761 162.751 415.347 162.825 415.888 162.593C416.131 162.748 416.426 162.85 416.751 162.924C415.31 164.299 413.973 165.845 412.66 167.388ZM412.215 163.023C411.978 163.966 411.338 165.365 410.092 164.897C409.625 164.705 409.586 164.006 409.663 163.303C409.836 163.303 410.014 163.263 410.209 163.221C410.598 163.191 410.949 163.023 411.258 162.874C411.589 162.946 411.919 163.023 412.215 163.023ZM380.806 162.521C381.639 162.988 382.457 163.338 383.08 163.57C383.608 163.771 384.167 163.57 384.343 163.151C384.519 162.759 384.58 162.324 384.54 161.939C384.716 161.939 384.889 161.939 385.041 161.899C386.17 161.774 386.618 161.392 386.658 160.844C386.799 160.919 386.948 160.919 387.087 160.919C387.534 161.018 387.99 161.077 388.467 161.071C385.907 163.659 383.65 164.828 381.586 164.55C381.293 164.513 380.979 164.588 380.79 164.82C380.675 164.948 380.606 165.098 380.571 165.255C380.534 165.242 380.494 165.239 380.457 165.223C380.869 164.51 380.931 163.522 380.806 162.521ZM318.821 47.7869C318.821 47.8643 318.778 47.939 318.778 48.0165C318.778 48.0405 318.778 48.0512 318.778 48.0645C318.725 48.1179 318.656 48.158 318.605 48.2141C318.616 48.0912 318.608 47.9818 318.613 47.8643C318.685 47.8429 318.752 47.8109 318.821 47.7869ZM325.63 151.248C325.678 150.96 325.688 150.645 325.672 150.314C325.72 150.287 325.765 150.285 325.803 150.285C326.21 151.139 326.493 152.041 326.791 152.952C326.501 153.166 326.106 152.8 325.63 151.248ZM332.921 149.735C332.889 149.572 332.854 149.404 332.822 149.241C333.259 149.566 333.744 149.78 334.282 149.847C333.709 149.889 333.227 149.879 332.921 149.735ZM338.269 151.334C337.976 151.243 337.734 151.152 337.521 151.059C337.63 150.813 337.742 150.57 337.841 150.317C337.907 150.309 337.968 150.327 338.035 150.317C338.075 150.632 338.176 150.941 338.424 151.251C338.384 151.248 338.328 151.297 338.269 151.334ZM457.138 149.809C456.911 149.286 456.738 148.752 456.549 148.221C456.879 148.207 457.209 148.189 457.505 148.087C457.843 147.986 458.099 147.866 458.339 147.743C458.35 147.751 458.366 147.751 458.376 147.759C458.683 147.954 459.005 148.117 459.367 148.207C459.263 148.717 459.159 149.227 459.064 149.729C458.653 149.924 458.011 149.924 457.138 149.809ZM464.857 152.343C464.876 151.959 464.876 151.569 464.876 151.174C465.007 151.107 465.121 150.992 465.252 150.912C465.518 150.749 465.779 150.592 466.019 150.378C466.061 150.341 466.115 150.319 466.157 150.282C466.2 150.282 466.256 150.282 466.314 150.319C466.314 150.327 466.317 150.335 466.314 150.343C466.296 150.666 466.306 150.971 466.354 151.251C465.635 153.518 465.132 153.283 464.857 152.343ZM502.279 55.8956C502.34 55.8956 502.393 55.9223 502.452 55.9303C502.585 55.949 502.716 55.9783 502.838 56.0398C502.929 56.0851 503.009 56.1519 503.091 56.2133C503.163 56.2694 503.235 56.3201 503.302 56.3869C503.395 56.483 503.48 56.5871 503.56 56.6992C503.581 56.7286 503.6 56.758 503.619 56.7874C503.616 56.7874 503.611 56.7874 503.608 56.7874C503.302 56.7179 502.993 56.6992 502.681 56.7179C502.633 56.7206 502.585 56.7286 502.537 56.7339C502.26 56.7606 501.98 56.8167 501.701 56.9048C501.645 56.9209 501.586 56.9395 501.528 56.9582C501.253 57.0543 500.979 57.1772 500.702 57.324C500.641 57.3561 500.582 57.3828 500.521 57.4175C500.268 57.5616 500.015 57.7272 499.761 57.9061C499.7 57.9488 499.642 57.9782 499.58 58.0209C500.15 57.2706 500.806 56.467 501.629 56.0504C501.858 55.9356 502.074 55.8929 502.279 55.8956ZM461.956 24.3952C462.822 24.7717 463.398 25.1481 463.685 25.5379C463.781 25.6741 463.842 25.8129 463.874 25.9545C463.741 25.9464 463.597 25.9464 463.459 25.9464C463.384 25.9411 463.312 25.9384 463.235 25.9411C462.915 25.9438 462.59 25.9651 462.268 26.0319C462.265 25.9571 462.236 25.8824 462.228 25.8076C462.212 25.6955 462.199 25.5833 462.17 25.4685C462.09 25.1561 461.972 24.8464 461.767 24.5474C461.842 24.51 461.882 24.4246 461.956 24.3952ZM432.681 10.6902C432.676 10.6955 432.673 10.6982 432.668 10.7035C432.582 10.4793 432.497 10.2363 432.404 9.98532C432.455 9.85983 432.502 9.73434 432.553 9.60885C432.665 9.96396 432.673 10.3271 432.681 10.6902ZM417.193 5.28616C417.004 5.31019 416.818 5.33422 416.629 5.36893C416.437 5.40097 416.242 5.45437 416.045 5.51311C415.941 5.44369 415.83 5.38762 415.72 5.32621C415.441 5.16868 415.145 5.02183 414.817 4.94173C414.602 4.90168 414.367 4.8643 414.178 4.8643C414.141 4.30361 414.13 3.72422 414.199 3.25163C414.202 3.24095 414.202 3.23295 414.205 3.22227C414.234 3.02736 414.285 2.86182 414.346 2.71497C414.364 2.67225 414.378 2.62686 414.399 2.59215C414.479 2.44263 414.575 2.32248 414.705 2.2584C416.139 1.46542 416.916 3.72956 417.193 5.28616ZM377.281 2.25306C377.409 2.31447 377.502 2.43462 377.582 2.58147C377.609 2.62953 377.63 2.6856 377.652 2.74167C377.699 2.86182 377.739 2.99532 377.766 3.14217C377.777 3.20091 377.79 3.25697 377.798 3.32105C377.857 3.78029 377.851 4.32764 377.806 4.86163C377.612 4.86163 377.404 4.90168 377.167 4.93906C376.847 5.01649 376.567 5.158 376.301 5.31019C376.178 5.37694 376.051 5.43301 375.936 5.51311C375.747 5.45704 375.555 5.40364 375.371 5.3716C375.174 5.33422 374.977 5.31286 374.788 5.28616C375.081 3.72956 375.843 1.46542 377.281 2.25306ZM359.58 10.0067C359.487 10.231 359.412 10.5166 359.33 10.7062C359.324 10.6982 359.316 10.6929 359.308 10.6849C359.316 10.3244 359.324 9.96129 359.428 9.61152C359.487 9.73968 359.522 9.85449 359.58 10.0067ZM330.217 24.5447C330.022 24.8384 329.908 25.1481 329.825 25.4578C329.799 25.5566 329.783 25.6527 329.767 25.7489C329.751 25.8423 329.719 25.9331 329.711 26.0265C329.388 25.9598 329.066 25.9384 328.749 25.9358C328.672 25.9358 328.597 25.9358 328.523 25.9411C328.387 25.9438 328.248 25.9411 328.115 25.9491C328.214 25.4044 328.856 24.8971 330.02 24.3898C330.1 24.4246 330.161 24.51 330.217 24.5447ZM292.43 58.0396C292.356 57.9835 292.281 57.9488 292.207 57.8954C291.959 57.7192 291.711 57.559 291.466 57.4175C291.399 57.3774 291.33 57.348 291.264 57.3133C290.997 57.1718 290.731 57.0543 290.464 56.9609C290.4 56.9369 290.337 56.9182 290.273 56.8968C289.996 56.8114 289.724 56.758 289.449 56.7286C289.399 56.7259 289.348 56.7153 289.298 56.7126C288.983 56.6939 288.672 56.7153 288.365 56.7847C288.363 56.7847 288.363 56.7847 288.36 56.7847C288.376 56.7633 288.389 56.7393 288.405 56.7179C288.493 56.5951 288.589 56.4776 288.693 56.3735C288.749 56.3201 288.808 56.2747 288.866 56.2293C288.959 56.1546 289.053 56.0851 289.156 56.0317C289.268 55.9757 289.391 55.9516 289.513 55.9303C289.577 55.9196 289.641 55.8902 289.708 55.8902C289.913 55.8902 290.126 55.933 290.35 56.0451C291.197 56.4696 291.844 57.284 292.43 58.0396Z" fill="black"/>
<path d="M145 288.25C145 279.413 152.163 272.25 161 272.25H579V288.25H145V288.25Z" fill="black"/>
<path d="M579 265.25C352.03 266.516 260.28 267.968 177 272.25H579V265.25Z" fill="black"/>
<path d="M190.753 254.955C191.088 253.909 192.349 253.208 193.56 252.85C194.502 252.571 195.414 252.5 195.833 252.635C196.791 252.944 198.533 253.386 200.12 252.738C200.874 252.431 201.083 251.946 201.098 251.52L201.273 251.796L201.445 252.112C201.652 252.63 201.847 253.158 202.047 253.681C202.249 254.208 202.431 254.744 202.629 255.272C202.823 255.802 203.019 256.332 203.201 256.866L203.756 258.467L204.035 259.267L204.302 260.07L204.836 261.679C205.011 262.216 205.196 262.749 205.364 263.287L205.872 264.904L206.38 266.52L206.635 267.328C206.719 267.598 206.796 267.87 206.877 268.141L207.841 271.389C208.003 271.931 208.169 272.471 208.313 273.018L208.77 274.653L209.227 276.286C209.272 276.45 209.32 276.613 209.366 276.777C209.402 276.96 209.437 277.136 209.469 277.299C209.58 277.868 209.674 278.313 209.735 278.617C209.796 278.922 209.829 279.083 209.829 279.083C209.829 279.083 209.805 278.92 209.759 278.612C209.723 278.374 209.675 278.046 209.614 277.643C209.64 277.734 209.666 277.826 209.693 277.918C209.655 277.756 209.618 277.594 209.581 277.431C209.573 277.381 209.566 277.336 209.558 277.284C209.469 276.712 209.36 276.018 209.236 275.22C209.111 274.423 208.972 273.524 208.811 272.545C208.651 271.565 208.478 270.504 208.294 269.383C208.106 268.26 207.907 267.078 207.703 265.854C207.494 264.631 207.284 263.368 207.059 262.084C207.02 261.863 206.981 261.638 206.942 261.415C206.951 261.418 206.958 261.421 206.967 261.423C207.169 261.483 207.368 261.548 207.564 261.614C207.59 262.767 207.667 263.901 207.765 264.993C207.864 266.095 208.003 267.155 208.153 268.156C208.3 269.158 208.474 270.099 208.649 270.965C208.821 271.832 209.004 272.621 209.176 273.316C209.349 274.012 209.51 274.616 209.649 275.111C209.788 275.607 209.91 275.993 209.993 276.255C210.079 276.518 210.126 276.657 210.126 276.657C210.126 276.657 210.088 276.515 210.017 276.249C209.948 275.983 209.856 275.59 209.736 275.09C209.499 274.09 209.201 272.651 208.908 270.918C208.763 270.05 208.621 269.108 208.493 268.11C208.366 267.11 208.257 266.054 208.169 264.96C208.088 263.928 208.04 262.86 208.015 261.776C208.625 262.006 209.193 262.272 209.692 262.586C209.697 262.6 209.701 262.61 209.701 262.61C209.701 262.61 209.698 262.602 209.695 262.589C210.707 263.227 211.432 264.061 211.633 265.178C211.633 265.179 211.633 265.18 211.634 265.182C211.666 263.983 212.725 262.397 212.926 260.68C213.125 258.964 212.033 255.82 209.471 255.311C209.011 255.253 208.644 255.262 208.351 255.308C208.381 255.082 208.404 254.854 208.437 254.631C208.598 253.599 208.799 252.593 209.046 251.625C209.855 252.429 211.5 253.369 213.181 251.851C214.437 250.717 214.761 248.047 214.813 245.845L214.815 245.844C214.815 245.844 214.813 245.844 214.813 245.845C214.838 244.783 214.801 243.828 214.773 243.209C214.721 242.05 215.166 241.012 215.522 240.377C215.751 239.968 215.944 239.724 215.944 239.724C215.944 239.724 214.601 240.498 212.713 241.324C212.443 241.442 212.162 241.605 211.876 241.799C211.877 241.796 211.884 241.785 211.884 241.785C211.884 241.785 211.874 241.797 211.871 241.802C210.155 242.97 208.25 245.406 207.339 247.938C206.411 250.877 208.197 251.299 208.689 251.36C208.406 252.387 208.169 253.459 207.997 254.562C207.952 254.849 207.92 255.142 207.882 255.432C207.382 255.629 207.257 255.936 207.257 255.936C207.257 255.936 206.56 255.655 205.782 255.946C205.765 255.89 205.75 255.833 205.732 255.777C205.682 255.62 205.632 255.461 205.582 255.305C205.482 254.991 205.387 254.676 205.281 254.367C205.061 253.752 204.854 253.138 204.623 252.54C204.507 252.242 204.392 251.944 204.278 251.65C204.166 251.354 204.053 251.063 203.932 250.776C203.828 250.517 203.722 250.271 203.617 250.017C204.671 250.125 206.633 248.809 206.375 246.612C206.102 244.28 204.283 242.678 202.536 241.151C202.385 241.02 202.233 240.906 202.082 240.79C202.066 240.755 202.056 240.733 202.056 240.733C202.056 240.733 202.064 240.754 202.076 240.785C200.559 239.63 199.008 239.168 197.97 237.831C197.906 237.748 197.843 237.663 197.784 237.574C197.784 237.574 197.961 238.279 197.85 240.411C197.811 241.166 197.802 242.043 197.918 243C197.913 242.995 197.901 242.985 197.901 242.985C197.901 242.985 197.912 242.998 197.918 243.005C197.973 243.451 198.056 243.915 198.175 244.392C198.168 244.383 198.164 244.378 198.164 244.378C198.164 244.378 198.169 244.385 198.177 244.396C198.395 245.263 198.738 246.174 199.268 247.106C198.248 246.416 196.712 246.602 195.091 247.331C194.056 247.8 193.385 248.2 192.846 248.832C192.824 248.842 192.811 248.849 192.811 248.849C192.811 248.849 192.824 248.845 192.838 248.841C192.419 249.335 192.08 249.971 191.71 250.892C190.568 251.93 190.49 254.931 190.682 255.033C190.703 255.042 190.727 255.019 190.753 254.955ZM206.62 262.161C206.845 263.443 207.082 264.704 207.303 265.924C207.53 267.144 207.748 268.323 207.955 269.441C208.166 270.558 208.366 271.615 208.551 272.59C208.716 273.468 208.874 274.275 209.018 275.005L208.926 274.612L208.538 272.961C208.411 272.409 208.26 271.864 208.115 271.317L207.229 268.038C207.154 267.765 207.083 267.491 207.004 267.219L206.761 266.406L206.274 264.78L205.785 263.154C205.62 262.612 205.437 262.077 205.263 261.537L204.851 260.277C205.251 260.667 205.796 260.996 206.457 261.248C206.511 261.552 206.565 261.858 206.62 262.161ZM204.539 253.593C204.645 253.896 204.751 254.202 204.858 254.509C204.962 254.816 205.055 255.128 205.152 255.438C205.201 255.594 205.25 255.751 205.299 255.906C205.325 255.99 205.348 256.074 205.373 256.157C205.017 256.391 204.666 256.767 204.378 257.376C204.251 257.63 204.169 257.879 204.122 258.121L203.626 256.715C203.441 256.179 203.242 255.649 203.045 255.118C202.847 254.587 202.652 254.056 202.444 253.528C202.236 253.002 202.034 252.474 201.815 251.948L201.81 251.938L201.808 251.934L201.614 251.589L201.397 251.26C201.317 251.156 201.239 251.05 201.157 250.947C201.07 250.849 200.985 250.749 200.895 250.652C200.839 249.956 200.787 249.471 200.651 249.033C202.109 250.593 202.944 250.473 203.27 250.212C203.365 250.451 203.459 250.683 203.555 250.926C203.67 251.212 203.78 251.504 203.889 251.799C203.998 252.093 204.109 252.39 204.22 252.689C204.334 252.985 204.434 253.29 204.539 253.593Z" fill="black"/>
<path d="M557.013 243.884C558.12 244.77 559.703 243.022 560.351 242.25C561.113 241.343 561.612 240.159 561.639 238.965C561.641 238.781 561.631 238.602 561.612 238.432C561.542 237.88 561.346 237.38 561.058 236.936C559.83 235.028 556.88 234.185 554.813 234.972C554.369 235.143 553.889 235.445 553.539 235.825C553.423 235.951 553.321 236.084 553.239 236.226C551.994 235.883 550.743 236.751 550.401 238.018C550.277 236.861 550.184 235.658 549.979 234.499C550.345 234.693 550.791 234.713 551.263 234.44C552.834 233.532 553.065 231.412 552.773 229.788C552.445 227.965 551.602 225.754 550.363 224.352C549.565 223.449 548.28 222.45 547.157 223.359C547.154 223.364 547.151 223.364 547.147 223.368C547.105 223.401 547.068 223.443 547.037 223.486C546.09 223.701 545.181 225.007 544.939 225.772C544.328 227.712 543.997 230.235 544.772 232.161C544.924 232.54 545.16 232.923 545.455 233.27C544.74 233.247 544.011 233.462 543.385 233.156C543.261 233.093 543.132 233.011 543.017 232.898C541.317 231.27 538.281 233.101 536.874 234.236C536.019 234.928 535.223 235.906 535.028 237.016C534.926 237.584 535.11 238.399 535.478 239.048C535.488 239.065 535.499 239.082 535.509 239.099C535.535 239.144 535.562 239.19 535.591 239.233C535.629 239.291 535.669 239.348 535.71 239.402C535.711 239.403 535.713 239.405 535.714 239.406C535.967 239.74 536.276 239.993 536.624 240.076C537.346 240.25 538.085 239.686 538.7 239.401C539.601 238.976 540.637 238.584 541.638 238.507C542.969 238.403 544.284 238.361 545.334 237.782C545.466 238.216 545.578 238.605 545.675 238.894C546.02 239.914 546.303 240.944 546.548 241.982C546.392 242.017 546.233 242.059 546.072 242.108C546.022 241.95 545.948 241.813 545.855 241.693C545.844 241.677 545.83 241.664 545.818 241.65C545.79 241.615 545.761 241.581 545.729 241.55C545.705 241.526 545.679 241.504 545.654 241.482C545.64 241.47 545.627 241.459 545.613 241.448C545.527 241.378 545.434 241.317 545.333 241.265C545.325 241.261 545.315 241.257 545.306 241.253C545.2 241.201 545.088 241.156 544.969 241.121C544.968 241.12 544.966 241.12 544.964 241.119C544.843 241.084 544.717 241.058 544.589 241.038C544.579 241.037 544.569 241.035 544.559 241.033C544.428 241.015 544.295 241.004 544.162 241.001C544.16 241.001 544.159 241.001 544.158 241.001C543.705 240.99 543.246 241.058 542.871 241.177C542.699 241.231 542.533 241.297 542.371 241.368C542.318 241.392 542.268 241.42 542.216 241.445C542.108 241.497 542.002 241.552 541.899 241.612C541.845 241.643 541.794 241.677 541.742 241.711C541.643 241.773 541.546 241.838 541.453 241.908C541.408 241.941 541.365 241.975 541.321 242.011C541.272 242.05 541.219 242.086 541.171 242.128C541.191 242.115 541.211 242.101 541.231 242.088C540.585 242.632 540.081 243.335 539.759 244.148C539.38 245.113 539.227 246.31 539.771 247.218C539.847 247.348 539.937 247.472 540.043 247.588C540.05 247.598 540.059 247.606 540.067 247.613C540.057 247.647 540.044 247.678 540.036 247.714C540.008 247.882 540.022 248.058 540.078 248.215C540.088 248.244 540.105 248.27 540.117 248.297C540.129 248.323 540.14 248.348 540.153 248.373C540.161 248.386 540.17 248.398 540.178 248.41C540.278 248.569 540.429 248.692 540.636 248.732C542.386 249.078 544.423 247.783 545.881 246.97C545.953 246.929 546.03 246.886 546.108 246.841C546.214 247.911 546.263 248.99 546.3 250.065C546.356 251.64 546.472 253.213 546.559 254.789C546.596 255.46 546.634 256.126 546.664 256.793C546.345 257.182 546.09 257.626 545.868 258.081C545.821 258.177 545.773 258.272 545.73 258.371C545.692 258.453 545.654 258.536 545.618 258.618C545.364 259.197 545.181 259.855 545.085 260.523C545.019 260.481 544.952 260.443 544.884 260.406C544.87 260.398 544.856 260.39 544.841 260.383C544.724 260.322 544.605 260.271 544.485 260.227C544.467 260.22 544.448 260.214 544.429 260.208C544.424 260.206 544.419 260.204 544.414 260.203C545.384 259.164 546.409 257.481 545.596 256.328C545.461 256.132 545.273 255.95 545.023 255.79C544.214 255.272 543.246 255.382 542.31 255.753C542.305 255.747 542.3 255.74 542.296 255.734C542.073 255.451 541.816 255.196 541.522 254.975C540.249 254.023 538.153 254.612 537.099 255.592C536.947 255.733 536.804 255.882 536.666 256.035C536.625 256.08 536.587 256.127 536.548 256.173C536.451 256.285 536.36 256.399 536.272 256.516C536.231 256.571 536.19 256.625 536.151 256.681C536.065 256.803 535.984 256.929 535.907 257.057C535.878 257.105 535.846 257.151 535.819 257.2C535.722 257.37 535.634 257.543 535.555 257.721C535.529 257.781 535.507 257.842 535.482 257.903C535.433 258.026 535.385 258.15 535.344 258.276C535.318 258.355 535.296 258.435 535.273 258.514C535.241 258.631 535.214 258.748 535.189 258.866C535.173 258.946 535.155 259.026 535.142 259.106C535.139 259.128 535.132 259.149 535.129 259.172C535.132 259.165 535.134 259.159 535.137 259.153C535.077 259.552 535.056 259.96 535.092 260.376C535.141 260.926 535.285 262.187 535.775 262.906C535.995 263.235 536.286 263.455 536.671 263.449C537.139 263.779 537.849 263.849 538.181 263.402C538.701 263.076 539.266 262.879 539.847 262.704C539.774 262.805 539.702 262.905 539.633 263.004C539.52 263.168 539.418 263.336 539.325 263.506C539.283 263.582 539.251 263.661 539.214 263.738C539.167 263.834 539.117 263.929 539.076 264.027C539.039 264.115 539.012 264.205 538.98 264.294C538.948 264.384 538.911 264.473 538.884 264.563C538.853 264.663 538.831 264.765 538.806 264.866C538.785 264.948 538.761 265.029 538.744 265.111C538.72 265.229 538.704 265.348 538.686 265.466C538.676 265.534 538.662 265.601 538.654 265.669C538.637 265.812 538.628 265.958 538.619 266.103C538.617 266.146 538.612 266.188 538.61 266.231C538.602 266.415 538.602 266.6 538.607 266.786C538.607 266.789 538.607 266.792 538.607 266.795C538.613 267.016 538.625 267.237 538.648 267.459C538.685 267.82 538.87 268.425 539.17 268.833C539.213 268.892 539.258 268.948 539.305 268.998C539.319 269.177 539.355 269.347 539.435 269.501C539.51 269.652 539.629 269.788 539.817 269.901C540.526 270.327 541.293 270.206 542.019 269.885C542.864 269.51 543.477 268.696 544.127 268.072C545.064 267.17 546.477 267.28 547.644 266.995C547.97 266.917 548.281 266.803 548.575 266.662C548.675 266.703 548.776 266.74 548.881 266.77C549.292 266.893 549.743 266.943 550.211 266.948C550.947 267.151 551.655 267.111 552.414 266.935C553.278 266.735 554.157 266.468 554.977 266.119C555.119 266.488 555.306 266.837 555.533 267.165C555.883 267.675 556.323 268.135 556.815 268.542C558.066 269.573 559.721 270.963 561.393 270.999C562.969 271.036 564.541 269.214 565.022 267.85C565.557 266.325 565.513 263.688 564.655 262.263C564.597 262.166 564.535 262.07 564.471 261.975C564.406 261.879 564.338 261.784 564.266 261.69C564.619 261.726 564.971 261.748 565.314 261.73C565.203 261.705 565.092 261.682 564.981 261.659C565.461 261.672 565.932 261.634 566.368 261.516C566.521 261.566 566.688 261.574 566.857 261.513C568.989 260.745 569.532 258.75 569.613 256.671C569.681 254.952 569.403 253.452 568.5 252.247C568.089 251.693 567.547 251.2 566.845 250.776C565.584 250.012 563.875 250.273 562.635 250.954C562.817 250.146 563.029 249.342 563.286 248.557C563.829 248.85 564.432 249.047 564.992 249.171C565.716 249.332 566.473 249.365 567.21 249.349C568.654 249.318 569.885 249.332 571.277 249.761C571.337 249.782 571.398 249.792 571.462 249.807C572.31 250.024 573.196 249.945 573.949 249.593C574.751 249.267 575.42 248.647 575.754 247.753C576.33 246.199 575.823 244.458 574.968 243.114C574.966 243.11 574.962 243.107 574.959 243.103C574.958 243.102 574.957 243.1 574.956 243.098C573.9 241.44 572.068 240.875 570.197 240.811C569.335 240.778 568.588 240.988 567.981 241.384C567.615 241.596 567.296 241.872 567.032 242.206C567.021 242.22 567.011 242.236 567 242.251C566.219 241.534 564.623 241.893 563.732 242.33C563.596 242.396 563.467 242.474 563.343 242.555C562.864 242.838 562.466 243.22 562.166 243.665C562.732 241.735 563.337 239.816 563.91 237.888C563.925 237.888 563.94 237.89 563.955 237.89C564.038 238.081 564.148 238.264 564.281 238.437C564.689 238.97 565.309 239.394 565.93 239.582C567.971 240.197 569.798 238.941 570.905 237.339C572.151 235.54 572.807 233.006 572.364 230.847C572.215 230.121 571.874 229.418 571.412 228.873C571.136 228.542 570.816 228.266 570.467 228.076C570.469 228.056 570.469 228.036 570.46 228.019C570.455 228.011 570.447 228.006 570.441 227.998C570.403 227.939 570.356 227.889 570.305 227.844C570.297 227.837 570.289 227.83 570.28 227.823C570.262 227.808 570.245 227.79 570.226 227.777C569.241 227.08 566.733 228.425 565.955 228.778C564.073 229.63 562.157 230.884 560.998 232.635C560.127 233.956 560.334 235.437 561.224 236.554C561.432 236.817 561.677 237.06 561.956 237.277C562.387 237.612 562.878 237.799 563.385 237.864C562.856 239.251 562.427 240.685 561.989 242.087C561.246 244.479 560.562 246.912 560.026 249.359C560.007 248.234 559.649 247.116 558.926 246.21C558.669 245.886 558.368 245.588 558.02 245.327C557.09 244.628 555.852 244.131 554.69 244.503C554.476 244.571 554.289 244.673 554.126 244.796C553.922 244.925 553.75 245.083 553.62 245.265C553.59 245.308 553.557 245.346 553.532 245.388C553.529 245.394 553.527 245.4 553.524 245.405C553.366 245.305 553.193 245.225 553.011 245.157C552.958 244.357 552.911 243.557 552.879 242.755C552.872 242.588 552.873 242.418 552.875 242.247C553.457 242.5 554.092 242.634 554.705 242.761C555.671 242.961 556.252 243.269 557.013 243.884ZM545.608 237.613C546.064 237.303 546.462 236.873 546.775 236.257C547.055 235.707 547.266 235.037 547.126 234.453C547.727 234.653 548.369 234.646 548.977 234.301C549.127 234.218 549.274 234.11 549.418 233.986C549.418 233.989 549.422 233.991 549.423 233.994C549.477 234.069 549.535 234.14 549.597 234.204C549.618 234.515 549.637 234.827 549.672 235.136C549.814 236.362 549.925 237.597 549.997 238.832C550.122 240.922 550.287 243.024 550.44 245.119C550.257 245.176 550.079 245.24 549.915 245.321C549.775 245.389 549.641 245.471 549.51 245.558C549.185 245.754 548.882 246.001 548.618 246.291C548.422 246.462 548.256 246.672 548.137 246.923C548.109 246.969 548.087 247.017 548.061 247.063C547.985 246.602 547.899 246.142 547.812 245.682C548.642 244.975 549.288 244.091 549.115 243.057C549.073 242.804 548.988 242.598 548.871 242.431C548.504 241.895 547.791 241.773 546.938 241.904C546.548 240.461 546.101 239.034 545.608 237.613ZM548.776 253.915C548.73 252.874 548.645 251.833 548.543 250.793C549.13 251.278 549.895 251.538 550.685 251.747C550.694 252.274 550.703 252.801 550.718 253.328C550.738 254.008 550.76 254.701 550.777 255.398C550.713 255.37 550.655 255.334 550.589 255.308C549.999 255.081 549.393 255.157 548.818 255.362C548.806 254.88 548.797 254.398 548.776 253.915ZM551.467 253.796C551.44 253.174 551.421 252.551 551.403 251.928C551.895 252.049 552.376 252.172 552.812 252.339C552.871 253.776 552.921 255.214 552.97 256.652C552.779 256.704 552.591 256.767 552.407 256.834C552.238 256.559 552.034 256.309 551.79 256.095C551.69 255.993 551.585 255.896 551.471 255.808C551.486 255.14 551.495 254.471 551.467 253.796ZM553.528 254.12C553.499 253.629 553.476 253.138 553.455 252.648C553.663 252.766 553.872 252.894 554.086 253.027C554.677 253.395 555.297 253.752 555.977 253.711C555.995 253.709 556.01 253.707 556.028 253.707C555.979 253.679 555.93 253.651 555.881 253.622C555.963 253.629 556.045 253.639 556.129 253.634C556.263 253.626 556.397 253.604 556.525 253.575C556.539 253.59 556.551 253.604 556.564 253.616C556.739 253.779 556.976 253.882 557.217 253.904C556.621 255.057 556.547 256.449 557.197 257.657C557.542 258.299 558.002 258.857 558.536 259.336C558.445 259.879 558.355 260.425 558.276 260.972C558.169 259.791 557.616 258.602 556.826 257.796C556.224 257.181 555.381 256.793 554.562 256.58C554.274 256.505 553.982 256.491 553.693 256.516C553.638 255.717 553.575 254.917 553.528 254.12ZM559.208 259.869C559.433 260.029 559.666 260.177 559.905 260.314C559.564 260.518 559.29 260.793 559.076 261.112C559.12 260.698 559.164 260.284 559.208 259.869ZM559.484 251.818C559.525 251.734 559.561 251.648 559.597 251.562C559.585 251.634 559.576 251.707 559.564 251.78C559.537 251.791 559.511 251.806 559.484 251.818ZM546.541 246.584C546.804 246.424 547.076 246.246 547.344 246.051C547.351 246.096 547.359 246.14 547.366 246.184C547.472 246.826 547.567 247.468 547.652 248.112C547.515 248.742 547.563 249.392 547.871 249.976C548.006 251.289 548.1 252.605 548.153 253.925C548.176 254.486 548.186 255.048 548.192 255.611C547.93 255.733 547.682 255.891 547.446 256.072C547.393 256.109 547.34 256.146 547.289 256.185C547.253 255.56 547.212 254.934 547.165 254.305C547.029 252.529 546.91 250.746 546.76 248.969C546.731 248.648 546.677 247.675 546.541 246.584ZM561.534 245.908C561.547 246.181 561.587 246.456 561.664 246.726C561.854 247.388 562.287 247.892 562.827 248.274C562.456 249.348 562.145 250.437 561.877 251.541C561.848 251.575 561.823 251.615 561.795 251.651C561.332 251.472 560.817 251.459 560.307 251.559C560.408 250.966 560.515 250.374 560.629 249.785C560.881 248.478 561.192 247.189 561.534 245.908ZM551.113 244.974C551.003 243.366 550.876 241.762 550.673 240.163C550.814 240.459 550.989 240.734 551.194 240.985C551.524 241.391 551.935 241.732 552.399 242.004C552.382 242.256 552.368 242.508 552.364 242.761C552.352 243.504 552.374 244.248 552.408 244.992C551.986 244.919 551.544 244.916 551.113 244.974Z" fill="black"/>
<path d="M261.155 246.315C261.306 246.138 261.433 245.95 261.529 245.736C261.991 244.692 261.672 243.97 261.026 243.524C260.974 243.402 260.905 243.29 260.827 243.181C260.235 242.37 258.939 241.975 257.434 241.842C256.351 241.741 255.163 241.776 254.049 241.888C252.3 242.066 250.736 242.441 250.078 242.794C249.975 242.846 249.871 242.904 249.768 242.966C249.181 243.313 248.605 243.75 248.121 244.256C248.079 243.428 247.794 242.584 247.469 241.842C247.332 241.532 247.164 241.229 246.971 240.933C246.531 240.259 245.965 239.63 245.337 239.113C244.835 238.7 244.295 238.355 243.751 238.113C243.207 237.807 242.62 237.531 242.013 237.334C240.91 236.974 239.746 236.855 238.681 237.229C238.623 237.25 238.575 237.277 238.521 237.297C237.881 237.559 237.347 238.023 236.915 238.592C236.696 238.879 236.499 239.186 236.331 239.515C236.182 239.684 236.053 239.868 235.95 240.061C235.731 240.469 235.55 240.906 235.41 241.357C234.999 242.695 234.937 244.183 235.341 245.493C235.772 246.891 236.956 247.825 238.277 248.046C238.954 248.156 239.649 247.94 240.255 247.636C240.718 247.405 241.168 247.16 241.64 246.951C241.846 246.861 242.03 246.829 242.207 246.831C242.422 247.623 242.592 248.433 242.743 249.234C243.213 251.708 243.558 254.276 243.773 256.79C243.921 258.554 243.936 260.324 243.864 262.093C243.821 262.013 243.778 261.937 243.732 261.859C243.722 261.828 243.713 261.79 243.703 261.756C243.618 261.482 243.473 261.265 243.287 261.088C243.282 260.147 243.239 259.213 243.156 258.288C243.038 257.016 242.914 255.628 242.348 254.489C242.292 254.194 242.198 253.909 242.06 253.64C241.715 252.972 241.042 252.647 240.282 252.518C240.282 252.506 240.28 252.498 240.28 252.488C240.274 251.412 239.44 250.765 238.198 250.363C237.626 250.18 237.009 250.135 236.38 250.191C236.233 249.868 236.077 249.56 235.906 249.259C236.072 248.398 235.776 247.499 235.194 246.905C235.159 246.75 235.113 246.608 235.071 246.461C234.459 244.52 232.96 243.386 231.201 242.957C230.386 242.757 229.517 242.709 228.652 242.803C227.753 242.904 226.783 243.2 225.894 243.675C224.487 244.425 223.289 245.625 222.955 247.227C222.936 247.324 222.91 247.42 222.896 247.521C222.264 248.222 222.017 249.118 222.651 249.928C222.747 250.053 222.862 250.175 223 250.291C223.129 250.402 223.27 250.495 223.419 250.585C224.033 250.947 224.772 251.145 225.418 251.365C226.571 251.759 227.752 252.022 228.951 252.187C229.284 252.233 229.618 252.269 229.954 252.301C230.022 252.308 230.093 252.311 230.162 252.315C230.46 252.336 230.76 252.345 231.057 252.336C229.781 253.254 228.722 254.427 227.953 255.749C227.825 255.965 227.709 256.221 227.613 256.494C227.299 257.389 227.222 258.485 227.896 259.081C228.028 259.196 228.188 259.295 228.381 259.368C229.265 259.708 230.168 259.671 231.124 259.645C231.187 259.645 231.244 259.65 231.303 259.645C232.412 259.643 233.508 259.832 234.614 259.919C234.885 259.94 235.158 259.956 235.435 259.96C234.782 260.475 234.203 261.094 233.726 261.801C233.621 261.954 233.519 262.148 233.426 262.354C233.128 263.029 232.979 263.889 233.395 264.443C233.477 264.551 233.576 264.65 233.704 264.727C234.289 265.099 234.918 265.175 235.585 265.265C235.626 265.273 235.667 265.283 235.71 265.287C236.48 265.409 237.22 265.689 237.981 265.887C238.078 265.912 238.171 265.933 238.269 265.955C238.309 267.645 238.295 269.332 238.24 271H238.974H240.984H241.933H242.936H242.948H243.858H243.919H244.371H244.594H245.245H245.329H246.234H247.351C247.649 269.834 247.922 268.657 248.309 267.534C249.047 265.401 250.025 263.395 251.195 261.505C252.306 262.545 254.028 262.797 255.425 262.33C255.602 262.267 255.775 262.201 255.939 262.121C257.186 261.492 257.972 260.592 259.407 260.482C259.444 260.482 259.476 260.479 259.509 260.475C259.956 260.454 260.538 260.422 261.043 260.245C261.472 260.097 261.847 259.844 262.034 259.405C262.152 259.132 262.197 258.866 262.195 258.604C262.195 258.035 261.954 257.5 261.572 257.057C261.443 256.727 261.265 256.428 261.055 256.158C261.535 256.346 262.049 256.428 262.541 256.396C262.684 256.387 262.825 256.369 262.962 256.341C264.004 256.12 264.743 255.602 265.833 255.806C265.861 255.812 265.888 255.816 265.911 255.82C266.248 255.894 266.688 255.984 267.097 255.951C267.443 255.924 267.768 255.812 267.983 255.522C268.116 255.341 268.198 255.15 268.241 254.952C268.339 254.526 268.251 254.08 268.046 253.671C267.891 252.677 267.21 251.852 266.457 251.138C266.29 250.984 266.126 250.833 265.957 250.691C265.33 250.148 264.622 249.732 263.873 249.44C263.109 249.143 262.307 248.97 261.495 248.921C261.246 248.907 260.992 248.905 260.74 248.915C259.994 248.939 259.129 249.19 258.554 249.722C258.713 249.358 258.854 248.967 259.034 248.559C259.468 247.552 260.507 247.08 261.155 246.315Z" fill="black"/>
</svg>
