<svg width="432" height="272" viewBox="0 0 432 272" fill="none" xmlns="http://www.w3.org/2000/svg">
<path d="M3.05176e-05 272H432C267.752 207.416 173.378 183.859 3.05176e-05 170V272Z" fill="#EEEEE5"/>
<path d="M302 272C302 263.163 294.837 256 286 256H0V272H302V272Z" fill="black"/>
<path d="M0 249.5C158.088 250.766 221.994 252.218 280 256.5H0V249.5Z" fill="black"/>
<path d="M230.803 238.204C230.967 239.172 231.078 240.155 231.173 241.14C231.22 241.632 231.261 242.127 231.299 242.621C231.315 242.867 231.338 243.117 231.349 243.36L231.39 244.103L231.568 247.076C231.598 247.572 231.631 248.067 231.647 248.563L231.708 250.049L231.775 251.534C231.803 252.03 231.814 252.526 231.831 253.022L231.921 256C231.937 255.504 231.96 255.006 231.966 254.51L231.986 253.021C231.993 252.524 232.003 252.028 231.999 251.53L231.991 250.04L231.98 248.55C231.98 248.052 231.964 247.555 231.944 247.059L231.836 244.083L231.805 243.338C231.796 243.084 231.777 242.841 231.764 242.59C231.732 242.093 231.7 241.597 231.658 241.1C231.581 240.107 231.473 239.115 231.309 238.124C231.225 237.628 231.129 237.134 231.001 236.643C230.874 236.152 230.721 235.662 230.501 235.189C230.395 234.952 230.264 234.721 230.112 234.499C229.96 234.279 229.78 234.068 229.565 233.888C229.351 233.707 229.101 233.557 228.834 233.457C228.566 233.356 228.281 233.306 228.002 233.291L227.985 233.29L227.977 233.291L227.957 233.293C227.348 232.678 225.688 231.407 222.973 232.319C221.246 232.899 219.878 233.801 218.827 234.933C218.795 234.949 218.777 234.957 218.777 234.957C218.777 234.957 218.796 234.952 218.813 234.947C217.398 236.476 216.572 238.431 216.212 240.579C216.207 240.584 216.195 240.6 216.195 240.6C216.195 240.6 216.207 240.588 216.211 240.585C215.769 243.232 216.039 246.175 216.861 249.012C216.883 249.091 216.906 249.17 216.929 249.249C216.929 249.249 217.193 244.031 221.946 243.182C226.698 242.329 230.688 240.231 230.307 236.687C230.247 236.195 230.152 235.789 230.037 235.441C230.231 235.859 230.376 236.308 230.497 236.765C230.621 237.238 230.719 237.72 230.803 238.204Z" fill="black"/>
<path d="M140.006 197.353C140.005 197.357 139.999 197.366 140 197.369C140.006 197.38 140.024 197.381 140.059 197.365C140.394 197.225 144.312 195.494 149.492 196.304C149.29 196.454 149.098 196.613 148.921 196.781C146.837 198.759 146.391 200.906 146.295 201.691C146.295 201.693 146.293 201.701 146.293 201.701C146.291 201.712 146.292 201.715 146.29 201.726C146.281 201.799 146.277 201.856 146.273 201.901C146.271 201.934 146.27 201.946 146.27 201.963C146.269 201.989 146.268 202.005 146.268 202.005C146.268 202.005 148.385 198.727 151.54 196.753C153.875 197.405 156.384 198.618 158.891 200.714C158.781 200.702 158.671 200.69 158.562 200.687C158.531 200.667 158.503 200.648 158.471 200.628C157.173 199.816 154.825 198.891 151.648 199.866C147.032 201.282 145.448 205.628 145.377 206.89C145.376 206.891 145.376 206.894 145.375 206.895C145.375 206.906 145.375 206.913 145.375 206.923C145.374 206.954 145.374 206.981 145.375 207.007C145.376 207.066 145.38 207.119 145.389 207.155C145.398 207.187 145.415 207.198 145.437 207.2C145.442 207.201 145.448 207.201 145.453 207.2C145.476 207.196 145.502 207.184 145.536 207.159C145.539 207.157 145.54 207.158 145.543 207.155L145.544 207.152C146.27 206.578 149.456 201.45 155.76 201.475C155.398 201.646 155.044 201.82 154.703 201.972C154.472 202.074 154.218 202.211 153.954 202.386C152.983 202.639 151.944 203.06 150.856 203.717C144.965 207.275 144.919 213.94 144.965 214.345C144.966 214.361 144.973 214.357 144.981 214.345C144.982 214.342 144.984 214.339 144.985 214.335C145.171 213.974 146.696 207.936 151.574 205.207C150.751 206.903 150.266 209.356 150.682 212.829C150.684 212.855 150.685 212.897 150.686 212.913C150.7 213.026 150.711 213.136 150.728 213.253C150.728 213.253 150.732 213.237 150.734 213.225C150.736 213.219 150.739 213.207 150.741 213.198C150.747 213.175 150.755 213.143 150.764 213.105C150.766 213.097 150.768 213.092 150.769 213.085C150.796 212.979 150.835 212.825 150.887 212.632V212.629C151.291 211.114 152.456 207.13 154.221 204.175C157.462 203.413 160.469 205.121 161.663 205.888C161.723 205.926 161.78 205.963 161.83 205.996C161.885 206.111 161.938 206.223 161.99 206.333C161.966 206.359 161.947 206.389 161.935 206.422C161.909 206.488 161.905 206.557 161.902 206.626L162.008 209.864L162.114 213.102C162.129 214.18 162.067 215.258 162.021 216.337C161.972 217.416 161.917 218.492 161.888 219.574C161.86 220.655 161.874 221.736 161.871 222.815L161.888 226.053C161.889 226.593 161.879 227.133 161.874 227.672C161.873 227.744 161.875 227.816 161.873 227.888C161.871 227.887 161.871 227.888 161.871 227.888C161.834 227.872 161.806 227.868 161.791 227.885C161.754 227.925 161.774 228.053 161.858 228.272C161.864 228.286 161.868 228.299 161.873 228.312C161.871 228.64 161.865 228.967 161.871 229.294L161.896 230.913C161.898 231.051 161.896 231.188 161.896 231.324C161.875 231.286 161.861 231.259 161.861 231.259C161.861 231.259 161.87 231.301 161.891 231.373C161.893 231.377 161.894 231.384 161.896 231.388C161.896 231.768 161.89 232.148 161.86 232.529C161.846 232.742 161.844 232.956 161.835 233.169C161.809 233.172 161.783 233.173 161.757 233.177C161.726 233.149 161.697 233.117 161.665 233.09C160.651 232.252 159.365 231.849 158.159 232.117C158.478 230.821 159.036 229.695 159.862 228.12C159.993 227.871 160.039 227.716 160.004 227.657C160.004 227.657 160.005 227.656 160.005 227.656H160.004C160.004 227.655 160.002 227.655 160.001 227.654C159.985 227.631 159.95 227.631 159.903 227.645C159.893 227.648 159.885 227.649 159.873 227.654C159.867 227.656 159.864 227.656 159.858 227.658C159.858 227.658 159.848 227.667 159.843 227.672C159.523 227.825 158.744 228.558 157.516 229.967C156.696 230.908 156.277 232.119 156.064 233.236C155.533 230.794 155.195 227.814 155.168 227.303C155.168 227.284 155.164 227.271 155.163 227.254C155.163 227.253 155.164 227.247 155.164 227.247C155.164 227.238 155.161 227.234 155.16 227.226C155.156 227.205 155.152 227.188 155.148 227.173C155.145 227.165 155.142 227.156 155.139 227.148C155.13 227.131 155.121 227.12 155.109 227.116C155.108 227.116 155.108 227.114 155.107 227.114C155.094 227.111 155.079 227.117 155.062 227.132C155.058 227.135 155.054 227.142 155.05 227.146C155.038 227.16 155.026 227.175 155.012 227.196C155.009 227.201 155.006 227.203 155.003 227.209C155.003 227.211 155.002 227.215 155.002 227.216C154.822 227.536 154.539 228.626 154.36 230.647C154.248 231.909 154.369 233.029 154.549 233.909C154.518 233.88 154.493 233.85 154.461 233.821C151.424 231.052 148.567 231.263 146.735 232.639C146.702 232.664 146.692 232.68 146.69 232.692C146.69 232.695 146.691 232.698 146.692 232.701C146.699 232.709 146.715 232.715 146.744 232.717C146.747 232.717 146.749 232.717 146.752 232.717C146.788 232.719 146.842 232.716 146.905 232.712C146.931 232.71 146.965 232.708 146.994 232.705C147.618 232.658 149.107 232.529 150.707 233.281C152.527 234.134 154.267 236.201 155.055 238.156C154.758 237.618 154.333 237.16 153.616 236.691C152.402 235.897 149.922 234.716 148.201 234.765C146.48 234.816 145.721 235.728 145.181 237.248C144.817 238.275 144.747 239.098 144.796 239.469C144.795 239.47 144.794 239.474 144.794 239.477C144.798 239.506 144.803 239.528 144.808 239.552C144.81 239.564 144.813 239.581 144.816 239.591C144.827 239.631 144.842 239.655 144.857 239.67C144.862 239.674 144.867 239.678 144.871 239.68C144.889 239.689 144.908 239.688 144.927 239.666C145.114 239.467 145.992 238.498 146.447 237.99C146.901 237.484 148.183 236.961 150.039 237.433C150.561 237.566 151.068 237.733 151.532 237.903C150.524 237.835 149.498 237.937 149.095 238.04C148.436 238.209 146.87 238.962 146.042 240.86C146.024 240.899 146.015 240.926 146.002 240.958C146.002 240.958 146 240.962 146 240.962C145.998 240.965 145.999 240.966 145.997 240.97C145.973 241.03 145.957 241.079 145.951 241.11C145.951 241.112 145.95 241.116 145.949 241.118C145.944 241.15 145.95 241.166 145.964 241.17C145.966 241.17 145.971 241.168 145.974 241.168C145.988 241.168 146.009 241.16 146.035 241.145C146.044 241.14 146.053 241.134 146.063 241.127C146.09 241.11 146.121 241.086 146.158 241.059C146.166 241.053 146.171 241.05 146.18 241.043C146.181 241.042 146.181 241.042 146.182 241.042C146.611 240.71 147.591 239.858 148.808 239.814C149.529 239.789 150.286 239.756 151.004 239.749C150.357 240.019 149.764 240.35 149.364 240.658C148.251 241.52 148.015 243.108 148.655 244.931C149.14 246.308 149.834 247.893 150.175 248.3L150.176 248.303C150.194 248.324 150.209 248.336 150.224 248.35C150.232 248.358 150.242 248.368 150.25 248.375C150.262 248.384 150.271 248.384 150.281 248.388C150.291 248.392 150.302 248.4 150.311 248.4C150.321 248.4 150.328 248.388 150.337 248.381C150.342 248.376 150.35 248.376 150.354 248.368C150.365 248.348 150.373 248.317 150.376 248.276C150.445 247.6 150.342 242.501 150.816 241.758C151.228 241.109 151.681 240.409 152.052 240.197C152.053 240.197 152.053 240.197 152.054 240.197C152.054 240.196 152.055 240.195 152.056 240.195C152.108 240.165 152.16 240.145 152.209 240.137C152.604 240.069 154.392 240.711 154.729 240.981C154.972 241.176 155.265 241.753 155.411 242.063C155.411 242.064 155.408 242.065 155.408 242.067C155.366 242.173 155.38 242.265 155.385 242.355C155.401 242.538 155.429 242.714 155.455 242.892C155.507 243.247 155.567 243.601 155.601 243.955C155.628 244.133 155.629 244.311 155.641 244.489C155.643 244.578 155.653 244.667 155.651 244.755L155.646 245.023C155.646 245.379 155.612 245.739 155.642 246.106L155.655 246.242C155.664 246.289 155.675 246.332 155.685 246.38C155.7 246.47 155.734 246.558 155.767 246.644C155.796 246.732 155.846 246.81 155.885 246.894C155.928 246.974 155.978 247.05 156.025 247.128C156.075 247.204 156.128 247.277 156.179 247.351L156.216 247.407L156.225 247.421L156.239 247.436L156.258 247.463L156.341 247.569L156.506 247.781C156.535 247.816 156.561 247.852 156.591 247.887L156.685 247.985L157.06 248.374L157.152 248.469C157.181 248.504 157.207 248.539 157.234 248.573L157.403 248.78L157.571 248.992C157.63 249.062 157.7 249.129 157.772 249.185C157.921 249.301 158.107 249.36 158.277 249.404C158.449 249.449 158.608 249.52 158.732 249.64C158.856 249.759 158.944 249.918 159.046 250.066C159.094 250.14 159.141 250.215 159.179 250.292C159.21 250.372 159.227 250.456 159.238 250.545C159.26 250.722 159.283 250.901 159.312 251.078C159.339 251.257 159.375 251.433 159.407 251.609L159.457 251.873L159.519 252.136C159.622 252.48 159.754 252.819 159.757 253.179C159.764 253.357 159.762 253.536 159.753 253.716C159.746 253.894 159.735 254.074 159.75 254.253C159.757 254.344 159.773 254.433 159.772 254.521C159.772 254.573 159.765 254.626 159.761 254.679C159.715 254.671 159.67 254.661 159.627 254.66C159.615 254.659 159.603 254.658 159.592 254.657C159.562 254.624 159.538 254.584 159.502 254.561C159.471 254.542 159.433 254.523 159.4 254.509C159.369 254.497 159.329 254.481 159.293 254.473C159.221 254.454 159.141 254.444 159.058 254.463C158.974 254.48 158.895 254.539 158.859 254.613C158.848 254.633 158.844 254.653 158.837 254.674C158.826 254.676 158.814 254.679 158.803 254.681C158.759 254.654 158.718 254.622 158.672 254.602C158.628 254.584 158.582 254.565 158.54 254.551C158.498 254.535 158.452 254.521 158.408 254.507C158.317 254.481 158.224 254.461 158.127 254.455C158.031 254.449 157.929 254.452 157.833 254.497C157.785 254.518 157.741 254.554 157.71 254.597C157.68 254.64 157.662 254.689 157.654 254.737C157.648 254.792 157.663 254.841 157.67 254.893C157.672 254.909 157.673 254.926 157.675 254.943C157.68 254.966 157.676 254.992 157.682 255.015C157.715 255.133 157.816 255.228 157.925 255.289C157.967 255.314 158.014 255.327 158.06 255.34C158.02 255.485 157.988 255.627 157.935 255.766C157.924 255.794 157.917 255.822 157.919 255.854C157.924 255.885 157.94 255.913 157.967 255.929C158.018 255.965 158.079 255.974 158.136 255.983C158.252 256 158.37 256.002 158.486 255.999C158.719 255.997 158.951 255.972 159.179 255.935C159.293 255.918 159.407 255.894 159.52 255.866C159.633 255.839 159.747 255.816 159.858 255.782L160.025 255.732L160.191 255.678C160.236 255.663 160.28 255.642 160.324 255.624C160.387 255.675 160.459 255.716 160.539 255.738C160.6 255.755 160.663 255.76 160.726 255.757C160.755 255.755 160.789 255.752 160.819 255.746C160.847 255.74 160.879 255.734 160.906 255.727C161.024 255.7 161.141 255.667 161.255 255.628C161.301 255.613 161.347 255.596 161.392 255.578C161.407 255.581 161.419 255.59 161.434 255.594C161.497 255.607 161.558 255.607 161.621 255.607C161.651 255.608 161.682 255.608 161.713 255.605C161.746 255.602 161.775 255.602 161.807 255.596C161.869 255.588 161.931 255.577 161.991 255.553C162.005 255.549 162.019 255.541 162.032 255.534C162.037 255.54 162.038 255.547 162.043 255.552C162.092 255.604 162.154 255.647 162.217 255.682C162.282 255.719 162.352 255.742 162.423 255.758C162.459 255.765 162.499 255.772 162.533 255.773C162.566 255.776 162.605 255.778 162.638 255.779C162.78 255.784 162.921 255.785 163.061 255.775C163.132 255.77 163.202 255.766 163.272 255.757C163.308 255.752 163.342 255.746 163.377 255.738C163.396 255.731 163.413 255.726 163.43 255.717C163.446 255.705 163.465 255.702 163.479 255.666L163.474 255.678C163.5 255.646 163.515 255.609 163.531 255.571C163.582 255.594 163.634 255.612 163.689 255.622C163.745 255.631 163.8 255.628 163.855 255.622C163.872 255.641 163.883 255.664 163.906 255.677C163.993 255.733 164.095 255.757 164.195 255.77C164.397 255.795 164.6 255.782 164.798 255.747C164.993 255.714 165.186 255.66 165.375 255.597C165.47 255.564 165.563 255.529 165.655 255.488C165.696 255.469 165.736 255.449 165.776 255.425C165.821 255.515 165.895 255.592 165.984 255.644C166.039 255.676 166.1 255.696 166.161 255.71C166.191 255.715 166.225 255.722 166.253 255.723C166.282 255.725 166.316 255.726 166.343 255.726C166.464 255.73 166.586 255.729 166.705 255.718C166.766 255.715 166.826 255.712 166.887 255.702C166.917 255.698 166.946 255.693 166.977 255.685C166.992 255.681 167.006 255.675 167.023 255.668C167.038 255.657 167.054 255.657 167.066 255.623L167.062 255.634C167.094 255.595 167.115 255.553 167.132 255.505C167.146 255.457 167.149 255.405 167.14 255.354C167.121 255.251 167.054 255.165 166.978 255.104C166.902 255.041 166.818 254.996 166.731 254.957C166.688 254.939 166.643 254.92 166.6 254.905C166.556 254.889 166.51 254.876 166.467 254.86C166.377 254.837 166.285 254.815 166.187 254.809C166.092 254.802 165.989 254.805 165.894 254.85C165.889 254.853 165.886 254.857 165.881 254.861C165.824 254.741 165.722 254.646 165.605 254.589C165.478 254.527 165.342 254.493 165.204 254.475C165.132 254.465 165.07 254.461 165.001 254.456C164.932 254.452 164.864 254.449 164.796 254.449C164.66 254.449 164.523 254.458 164.385 254.485C164.249 254.513 164.111 254.561 163.996 254.651C163.97 254.67 163.956 254.699 163.935 254.722C163.929 254.723 163.92 254.724 163.913 254.725L163.728 252.19C163.693 251.687 163.647 251.187 163.642 250.687C163.632 250.184 163.642 249.681 163.656 249.18C163.71 247.17 163.799 245.154 163.661 243.139C163.648 242.935 163.628 242.733 163.609 242.53C163.674 242.194 163.731 241.86 163.82 241.532L164.095 240.407C164.181 240.03 164.292 239.663 164.395 239.291C164.397 239.28 164.397 239.266 164.393 239.254C164.384 239.223 164.351 239.214 164.32 239.216C164.421 239.086 164.528 238.967 164.619 238.911C164.878 238.748 166.191 238.45 166.464 238.53C166.498 238.541 166.532 238.558 166.567 238.583C166.568 238.584 166.568 238.585 166.568 238.585C166.568 238.585 166.569 238.585 166.569 238.585C166.813 238.767 167.073 239.298 167.308 239.79C167.578 240.354 167.073 243.936 167.063 244.419C167.062 244.476 167.075 244.504 167.098 244.51C167.099 244.51 167.099 244.511 167.099 244.511C167.122 244.515 167.157 244.495 167.2 244.455C167.201 244.455 167.201 244.455 167.202 244.455L167.203 244.454C167.476 244.199 168.102 243.139 168.56 242.209C169.165 240.979 169.135 239.841 168.423 239.14C168.184 238.904 167.823 238.642 167.422 238.406C167.95 238.474 168.507 238.566 169.038 238.649C169.999 238.799 170.667 239.633 170.893 239.828C170.901 239.835 170.909 239.842 170.916 239.846C170.931 239.858 170.943 239.864 170.952 239.866C170.956 239.866 170.96 239.87 170.963 239.869C170.973 239.867 170.978 239.857 170.978 239.834C170.978 239.831 170.976 239.824 170.975 239.82C170.974 239.798 170.967 239.767 170.957 239.727C170.956 239.723 170.956 239.722 170.955 239.717C170.955 239.717 170.952 239.712 170.952 239.711C170.946 239.688 170.942 239.669 170.933 239.64C170.501 238.206 169.442 237.529 168.985 237.35C168.699 237.239 167.951 237.072 167.206 237.038C167.692 236.91 168.262 236.786 168.842 236.71C170.378 236.51 171.357 237.055 171.674 237.506C171.99 237.958 172.602 238.821 172.731 238.998C172.75 239.025 172.77 239.022 172.791 239.004C172.796 238.999 172.801 238.99 172.806 238.982C172.822 238.959 172.835 238.926 172.849 238.88C172.851 238.87 172.855 238.87 172.857 238.859C172.857 238.858 172.857 238.854 172.857 238.852C172.932 238.558 172.955 237.891 172.762 237.032C172.476 235.758 171.953 234.952 170.577 234.745C169.199 234.537 167.094 235.246 166.04 235.766C165.439 236.064 165.06 236.381 164.773 236.766C165.046 236.277 165.397 235.792 165.807 235.339C166.062 235.469 166.222 235.559 166.273 235.557C166.278 235.557 166.282 235.556 166.284 235.554C166.296 235.547 166.294 235.527 166.272 235.487C166.271 235.485 166.273 235.486 166.272 235.485C166.272 235.484 166.271 235.483 166.271 235.483C166.27 235.481 166.271 235.481 166.269 235.478C166.191 235.346 166.108 235.227 166.025 235.107C166.818 234.293 167.772 233.618 168.709 233.31C169.982 232.889 171.093 233.081 171.638 233.187C171.712 233.202 171.776 233.214 171.828 233.224C171.842 233.226 171.853 233.228 171.865 233.229C171.911 233.237 171.944 233.24 171.964 233.237C171.971 233.237 171.981 233.237 171.985 233.234C171.997 233.226 171.994 233.211 171.962 233.179C170.631 231.905 168.377 231.458 165.693 233.345C165.94 232.591 166.161 231.638 166.195 230.531C166.252 228.724 166.118 227.742 165.992 227.443C165.992 227.438 165.991 227.429 165.991 227.425C165.976 227.39 165.961 227.366 165.947 227.35C165.944 227.348 165.942 227.348 165.94 227.346C165.921 227.33 165.905 227.332 165.889 227.348C165.886 227.35 165.883 227.351 165.88 227.355C165.868 227.373 165.856 227.4 165.845 227.44C165.845 227.44 165.846 227.451 165.847 227.455C165.844 227.469 165.838 227.472 165.835 227.49C165.757 227.94 165.136 230.557 164.404 232.661C164.341 231.858 164.148 230.992 163.712 230.237L163.655 228.063L163.64 226.555L163.652 225.047C163.661 224.543 163.679 224.041 163.692 223.539L163.757 222.031L163.917 219.018C163.948 218.514 163.958 218.011 163.978 217.508C163.987 217.005 164.002 216.501 164.003 215.998C164.014 214.992 164 213.985 163.982 212.98C163.971 212.477 163.957 211.973 163.94 211.47C163.923 210.968 163.896 210.465 163.924 209.964C163.949 209.461 164.005 208.96 164.071 208.463L164.176 207.716C164.18 207.694 164.182 207.672 164.185 207.651L164.338 207.423C164.244 207.552 164.199 207.626 164.185 207.649C164.185 207.648 164.185 207.648 164.185 207.648C164.232 207.567 164.496 207.117 164.928 206.464C166.005 205.472 167.978 204.291 171.01 204.787C171.225 204.821 171.437 204.868 171.644 204.923C175.563 205.939 178.107 210.104 178.637 210.733C178.639 210.736 178.641 210.74 178.642 210.744C178.652 210.755 178.658 210.76 178.666 210.769C178.671 210.774 178.675 210.78 178.679 210.784C178.707 210.812 178.727 210.826 178.736 210.82C178.738 210.82 178.739 210.816 178.739 210.815C178.747 210.804 178.747 210.78 178.737 210.732C178.534 209.82 176.914 204.586 172.563 203.674C171.636 203.479 170.807 203.432 170.061 203.461C176.254 201.67 180.104 204.1 181.855 205.723C182.024 206.271 182.144 206.751 182.223 207.102C182.229 207.129 182.234 207.156 182.241 207.183C182.262 207.282 182.283 207.373 182.299 207.449C182.319 207.545 182.335 207.616 182.348 207.668C182.35 207.676 182.353 207.688 182.355 207.695C182.366 207.736 182.375 207.756 182.381 207.758C182.382 207.758 182.384 207.756 182.385 207.754C182.391 207.747 182.396 207.724 182.4 207.672C182.416 207.436 182.478 206.99 182.533 206.416C182.826 206.749 182.973 206.966 182.973 206.966C182.973 206.966 182.975 206.956 182.975 206.941C182.976 206.935 182.975 206.931 182.976 206.923C182.977 206.907 182.976 206.887 182.975 206.86C182.975 206.848 182.974 206.838 182.972 206.823C182.969 206.791 182.964 206.752 182.955 206.708C182.953 206.696 182.952 206.687 182.949 206.675C182.936 206.614 182.917 206.544 182.89 206.463C182.833 206.295 182.735 206.081 182.582 205.829C182.705 204.059 182.652 201.53 181.355 199.912C180.197 198.47 178.257 197.649 175.941 197.53C175.929 197.528 175.913 197.525 175.903 197.523C175.865 197.521 175.825 197.525 175.787 197.523C175.081 197.497 174.342 197.537 173.579 197.643C173.509 197.653 173.44 197.662 173.37 197.673C172.982 197.733 172.591 197.808 172.194 197.903C172.18 197.906 172.166 197.911 172.153 197.914C171.761 198.009 171.364 198.126 170.965 198.255C170.933 198.266 170.902 198.272 170.87 198.282C170.883 198.278 170.917 198.27 170.935 198.265C170.821 198.302 170.708 198.334 170.594 198.374C169.743 198.673 168.978 199.154 168.3 199.722C167.011 200.802 166.043 202.203 165.405 203.307C169.17 195.732 176.193 194.408 176.193 194.408C183.112 195.445 184.301 199.622 184.661 200.562C184.662 200.566 184.664 200.569 184.664 200.573C184.668 200.582 184.671 200.586 184.674 200.595C184.682 200.615 184.689 200.63 184.695 200.647C184.702 200.664 184.71 200.682 184.717 200.694C184.728 200.716 184.738 200.731 184.747 200.741C184.751 200.745 184.755 200.746 184.759 200.748C184.766 200.752 184.774 200.752 184.781 200.748C184.784 200.746 184.787 200.745 184.79 200.741C184.801 200.73 184.81 200.712 184.82 200.682C185.09 199.899 185.405 196.693 182.93 194.081C181.562 192.636 178.786 191.992 175.895 192.232C175.872 192.232 175.851 192.233 175.837 192.234C175.831 192.234 175.827 192.236 175.821 192.236C175.694 192.247 175.568 192.265 175.44 192.28C175.265 192.3 175.091 192.32 174.917 192.346C174.777 192.367 174.64 192.393 174.501 192.418C174.34 192.448 174.18 192.479 174.02 192.513C173.876 192.544 173.732 192.578 173.588 192.614C173.435 192.652 173.283 192.696 173.132 192.739C172.99 192.78 172.847 192.82 172.706 192.865C172.682 192.873 172.655 192.88 172.631 192.888C172.635 192.888 172.64 192.888 172.644 192.888C171.443 193.285 170.308 193.846 169.347 194.591C167.633 195.918 166.495 197.222 165.738 198.31C167.309 192.972 170.475 190.509 173.628 189.443C174.78 190.072 175.63 190.788 176.163 191.311C176.168 191.316 176.172 191.32 176.176 191.324C176.392 191.537 176.556 191.716 176.665 191.843C176.666 191.844 176.667 191.844 176.667 191.846C176.72 191.907 176.759 191.954 176.787 191.988C176.789 191.99 176.791 191.993 176.793 191.995C176.817 192.024 176.832 192.044 176.832 192.044C176.777 191.875 176.709 191.691 176.627 191.496C176.625 191.494 176.625 191.493 176.623 191.491C176.313 190.75 175.798 189.868 175.042 189.05C178.341 188.325 181.334 188.905 182.093 189.016C182.097 189.016 182.102 189.018 182.106 189.018C182.175 189.028 182.231 189.036 182.259 189.036C182.306 189.036 182.33 189.025 182.34 189.01C182.342 189.006 182.338 188.999 182.337 188.993C182.337 188.98 182.328 188.964 182.306 188.944C182.297 188.935 182.286 188.926 182.272 188.916C182.244 188.895 182.205 188.871 182.157 188.845C182.135 188.833 182.117 188.823 182.092 188.81C182.032 188.78 181.96 188.749 181.88 188.717C181.855 188.708 181.841 188.7 181.815 188.689C181.814 188.689 181.808 188.688 181.805 188.687C180.747 188.284 178.137 187.74 174.109 188.203C173.41 187.66 172.581 187.192 171.568 186.911C171.317 186.841 171.071 186.795 170.827 186.754C174.788 182.768 178.598 182.861 179.334 182.82C179.379 182.818 179.406 182.808 179.424 182.797C179.43 182.794 179.433 182.79 179.436 182.786C179.446 182.774 179.448 182.761 179.439 182.744C179.438 182.741 179.439 182.738 179.437 182.735C179.424 182.716 179.397 182.694 179.363 182.67C179.351 182.662 179.336 182.654 179.321 182.646C179.29 182.627 179.251 182.608 179.207 182.588C179.19 182.58 179.177 182.573 179.157 182.565C179.095 182.539 179.021 182.513 178.941 182.486C178.911 182.477 178.88 182.469 178.849 182.459C178.818 182.45 178.79 182.441 178.758 182.432C178.757 182.432 178.747 182.431 178.74 182.43C177.534 182.106 174.874 181.914 171.506 183.451C169.376 184.423 167.815 185.993 166.708 187.497C166.67 187.519 166.633 187.546 166.594 187.569C166.562 187.588 166.526 187.601 166.494 187.621C166.501 187.62 166.508 187.619 166.515 187.619C166.255 187.779 166.004 187.956 165.761 188.15C165.941 183.121 169.049 178.543 169.627 177.736C169.686 177.653 169.727 177.597 169.727 177.597C169.467 177.761 169.218 177.933 168.976 178.113C168.971 178.117 168.965 178.121 168.959 178.125C168.95 178.133 168.929 178.152 168.916 178.161C164.962 181.141 163.468 186.178 162.914 189.892C161.667 182.921 164.154 177.488 164.503 176.259L164.503 176.257C164.507 176.247 164.507 176.243 164.509 176.233C164.522 176.181 164.532 176.139 164.537 176.105C164.538 176.093 164.537 176.085 164.538 176.076C164.54 176.049 164.537 176.03 164.53 176.018C164.528 176.013 164.526 176.009 164.522 176.005C164.51 175.997 164.494 175.998 164.47 176.009C164.466 176.01 164.465 176.009 164.46 176.011C164.431 176.026 164.392 176.056 164.346 176.096C164.342 176.099 164.34 176.099 164.337 176.102C164.337 176.103 164.334 176.107 164.333 176.108C164.302 176.135 164.271 176.162 164.233 176.2C160.638 179.716 160.278 186.189 160.499 190.481C156.74 183.626 151.47 183.132 148.466 185.819C148.439 185.835 148.422 185.847 148.419 185.849C148.281 185.973 148.15 186.105 148.023 186.242C147.482 186.828 151.981 182.558 157.694 189.89C159.027 191.6 160.331 195.789 160.982 198.393C160.733 197.873 160.453 197.379 160.132 196.941C159.379 195.045 157.662 191.712 154.361 189.733C154.302 189.699 154.245 189.664 154.187 189.63C153.6 189.292 153.001 189.038 152.401 188.849C152.404 188.849 152.418 188.85 152.419 188.85C152.401 188.844 152.384 188.841 152.365 188.836C152.254 188.801 152.142 188.777 152.03 188.748C151.845 188.699 151.662 188.651 151.477 188.616C151.35 188.591 151.225 188.574 151.099 188.556C150.996 188.54 150.894 188.518 150.791 188.507C150.764 188.507 150.732 188.508 150.704 188.509C146.828 188.139 143.227 190.6 142.49 194.589C142.479 194.649 142.475 194.687 142.475 194.713C142.475 194.721 142.479 194.721 142.481 194.725C142.484 194.734 142.486 194.744 142.494 194.741C142.499 194.739 142.509 194.728 142.518 194.719C142.527 194.71 142.536 194.702 142.547 194.687C142.559 194.67 142.576 194.646 142.592 194.623C142.6 194.61 142.606 194.604 142.615 194.589C142.616 194.588 142.618 194.586 142.618 194.584C143.049 193.933 144.507 191.389 147.437 190.16C147.437 190.16 152.888 189.674 157.149 194.889C156.986 194.842 156.821 194.802 156.652 194.767C156.657 194.767 156.662 194.767 156.666 194.767C156.656 194.765 156.644 194.765 156.634 194.762C156.298 194.693 155.955 194.647 155.605 194.621C155.54 194.616 155.476 194.613 155.41 194.61C155.08 194.593 154.749 194.59 154.415 194.609C154.395 194.61 154.375 194.609 154.355 194.609C154.352 194.609 154.349 194.611 154.346 194.611C153.674 194.653 153.005 194.773 152.357 194.949C151.394 194.73 150.37 194.589 149.281 194.589C144.326 194.589 141.414 196.182 140.406 196.959C140.405 196.96 140.396 196.965 140.396 196.965C140.387 196.973 140.382 196.977 140.373 196.985C140.307 197.037 140.253 197.082 140.205 197.125C140.189 197.139 140.17 197.154 140.157 197.168C140.113 197.209 140.083 197.241 140.058 197.271C140.05 197.28 140.038 197.291 140.033 197.3C140.014 197.325 140.007 197.341 140.006 197.353ZM176.947 199.032C179.284 200.364 180.606 202.521 181.364 204.359C180.701 203.711 179.774 202.949 178.454 202.065C175.668 200.199 172.213 200.291 169.607 201.2C173.212 198.595 176.947 199.032 176.947 199.032ZM162.006 203.086L162.01 203.104C161.986 203.058 161.963 203.011 161.938 202.966C161.943 202.974 161.947 202.98 161.951 202.988C161.97 203.021 161.988 203.053 162.006 203.086ZM156.111 241.79C156.111 241.835 156.111 241.871 156.112 241.891C156.108 241.892 156.105 241.892 156.101 241.893C156.086 241.854 156.051 241.766 155.994 241.635C156.042 241.697 156.078 241.745 156.111 241.79ZM156.509 202.074C156.464 202.073 156.418 202.075 156.373 202.075C156.417 202.074 156.46 202.073 156.509 202.074ZM160.253 235.661C160.366 235.688 160.472 235.717 160.575 235.745C160.278 235.798 159.871 235.926 159.418 236.139C159.628 235.969 159.857 235.803 160.099 235.64C160.15 235.647 160.202 235.649 160.253 235.661ZM157.937 238.346C158.262 238.087 158.758 237.836 159.48 237.649C160.068 237.7 160.649 237.76 161.171 237.843C160.519 237.944 159.829 238.314 159.658 238.558C159.518 238.754 159.355 239.251 159.245 239.953C159.065 239.905 158.884 239.87 158.712 239.867C158.091 239.855 157.409 240.398 157.02 240.762C157.123 240.078 157.305 239.153 157.52 238.802C157.609 238.654 157.745 238.499 157.937 238.346ZM159.122 241.609C159.129 242.14 159.19 242.502 159.269 242.607C159.27 242.617 159.271 242.635 159.271 242.643C159.29 242.659 159.31 242.655 159.33 242.641C159.334 242.64 159.338 242.631 159.342 242.628C159.35 242.619 159.359 242.615 159.368 242.601C159.368 242.599 159.368 242.595 159.368 242.592C159.424 242.517 159.478 242.318 159.519 241.963C160.226 242.68 160.731 243.7 160.701 245.151C160.689 245.787 160.75 246.088 160.838 246.126C160.86 246.144 160.883 246.152 160.909 246.135C160.91 246.126 160.913 246.107 160.916 246.096C161.051 245.957 161.214 245.364 161.292 244.475C161.445 242.753 161.259 241.471 161.04 241.064C160.923 240.847 160.528 240.526 160.046 240.27C160.325 239.812 160.69 239.466 161.09 239.21C161.332 239.054 161.558 238.952 161.769 238.894C161.765 240.01 161.757 241.128 161.733 242.244C161.715 243.134 161.672 244.024 161.635 244.914C161.567 245.362 161.484 245.807 161.347 246.239C161.29 246.408 161.228 246.576 161.148 246.732C161.07 246.892 160.975 247.044 160.854 247.168C160.732 247.292 160.586 247.402 160.423 247.452C160.34 247.472 160.254 247.48 160.172 247.46C160.088 247.44 160.009 247.403 159.932 247.36C159.779 247.272 159.633 247.166 159.472 247.08L158.998 246.827C158.698 246.638 158.408 246.427 158.15 246.178L157.954 245.998C157.924 245.963 157.894 245.931 157.867 245.895C157.845 245.859 157.818 245.824 157.799 245.785C157.716 245.629 157.662 245.457 157.599 245.289C157.484 244.949 157.315 244.626 157.243 244.279C157.172 243.931 157.183 243.572 157.2 243.215C157.21 243.036 157.214 242.856 157.206 242.673C157.191 242.495 157.166 242.314 157.146 242.138C157.139 242.051 157.133 241.964 157.155 241.882C157.172 241.795 157.209 241.723 157.228 241.619C157.227 241.602 157.232 241.591 157.221 241.567C157.217 241.544 157.18 241.524 157.164 241.527C157.126 241.524 157.107 241.535 157.083 241.543C157.037 241.559 156.997 241.578 156.956 241.595L156.919 241.612C156.927 241.581 156.932 241.541 156.936 241.475C157.53 240.83 158.271 240.929 159.122 241.609ZM159.386 234.055C158.743 234.469 158.237 235.081 157.837 235.744C157.816 234.729 157.856 233.893 157.96 233.147C158.605 233.114 159.344 233.23 160.089 233.67C159.849 233.784 159.613 233.909 159.386 234.055ZM156.707 241.702C156.714 241.7 156.719 241.7 156.724 241.7L156.709 241.707C156.704 241.71 156.699 241.711 156.694 241.713C156.699 241.708 156.702 241.707 156.707 241.702ZM156.356 241.805C156.355 241.816 156.359 241.821 156.36 241.83C156.31 241.846 156.261 241.871 156.21 241.882C156.208 241.883 156.206 241.882 156.203 241.883C156.203 241.882 156.203 241.882 156.202 241.881C156.256 241.854 156.311 241.824 156.356 241.805ZM166.451 191.988C168.146 188.789 170.756 188.351 170.756 188.351C171.105 188.43 171.434 188.528 171.754 188.633C169.214 189.334 167.522 190.721 166.451 191.988ZM161.767 202.684C161.766 202.682 161.765 202.682 161.765 202.68C161.765 202.682 161.765 202.682 161.767 202.684ZM164.004 208.922C163.984 209.085 163.969 209.248 163.953 209.412C163.969 209.245 163.985 209.081 164.004 208.922ZM157.684 197.258C156.747 196.641 155.609 196.021 154.3 195.53C154.366 195.513 154.431 195.488 154.498 195.473C154.498 195.473 155.87 195.605 157.684 197.258Z" fill="black"/>
<path d="M0.0673894 56.5245C0.58014 56.376 1.0236 56.0279 1.53892 55.8461C2.37727 55.5415 3.33869 55.4084 4.21549 55.2932C4.96924 55.2036 5.72553 55.2394 6.47928 55.3265C6.6331 55.3444 6.77928 55.3725 6.92798 55.4212C6.13322 55.6541 5.41023 56.0867 4.67187 56.4861C3.9335 56.888 2.80033 57.5357 2.45166 58.3548C2.41577 58.4316 2.4568 58.5801 2.57473 58.5161C4.16426 57.4947 6.10247 57.6073 7.90222 57.9094C6.99209 58.1296 6.10754 58.4367 5.1769 58.9103C3.88733 59.5836 2.38498 60.5871 1.57483 61.8568C1.58765 61.8619 1.58765 61.8619 1.60816 61.8517C1.56201 61.9233 1.57741 62.0129 1.65432 62.0129L1.66715 62.0206L1.6774 62.0129C1.73893 62.0078 1.81073 61.9745 1.86713 61.9617C1.88508 61.9617 1.91325 61.9515 1.91838 61.9387C2.57727 61.7467 3.19255 61.5342 3.82836 61.3627C3.84887 61.3525 3.89247 61.3474 3.90786 61.3422C3.9258 61.3269 3.9361 61.3013 3.94635 61.2885C6.74084 60.372 9.74806 60.6639 12.722 61.2296C12.1734 61.3858 11.6401 61.5803 11.1094 61.8517C10.0121 62.4174 8.05601 63.2878 7.49968 64.473C7.45353 64.5728 7.48687 64.8416 7.66633 64.7571C10.0891 63.6333 12.5042 63.8996 15.0397 64.3015C14.6449 64.4474 14.2346 64.6164 13.8603 64.7853C13.0553 65.1514 11.935 65.6838 11.4479 66.462C11.4043 66.5337 11.4222 66.6489 11.5068 66.6796C12.7323 67.0943 13.8373 68.0876 15.014 68.6584C16.46 69.3266 18.1521 69.6491 19.7365 69.8642C19.4955 69.9154 19.2647 69.9691 19.034 70.0254C18.893 70.0613 18.852 70.2968 18.9673 70.3761C20.5107 71.5332 22.5489 71.8788 24.4358 72.3959C23.5769 72.4164 22.6874 72.4855 21.89 72.7031C21.7619 72.7313 21.7388 72.936 21.8362 73.0231C22.3926 73.4506 23.1232 73.7706 23.8641 74.0522C22.8027 74.1264 21.7465 74.28 20.7543 74.5897C17.0061 75.7724 13.2937 77.7589 10.9453 80.9793C8.71745 84.0102 7.18432 88.3441 7.24329 92.0995C7.23047 92.2787 7.45868 92.248 7.50226 92.0995C7.74838 91.1702 8.07137 90.3869 8.479 89.6036C8.28416 90.4381 8.1842 91.3136 8.09704 92.1481C7.90732 93.8684 7.85089 95.6629 8.03804 97.3806C8.1688 98.5172 8.34572 100.043 9.02511 100.993C9.15074 101.182 9.3533 100.929 9.37125 100.795C9.4456 100.163 9.48913 99.5283 9.57373 98.896C9.54553 99.3235 9.51219 99.7562 9.52757 100.196C9.57884 101.041 9.71223 101.876 9.8917 102.697C10.2096 104.105 10.789 105.751 11.6479 106.952C11.6709 107.016 11.694 107.067 11.7094 107.129C11.735 107.19 11.7786 107.195 11.8196 107.18C11.9375 107.234 12.0862 107.06 12.0913 106.952C12.1195 106.069 11.8247 105.114 11.7786 104.216C11.7196 103.105 11.8325 102.006 11.9581 100.906C12.2503 98.3329 13.3219 96.0469 14.5038 93.7814C14.4628 94.2421 14.4679 94.6901 14.4679 95.1381C14.4654 96.4769 14.6474 97.7492 14.7217 99.0701C14.7781 99.6205 14.9397 100.173 15.3627 100.547C15.5062 100.667 15.6704 100.514 15.6806 100.36C15.8498 98.6477 16.1626 96.9659 16.719 95.3199C16.7369 95.2661 16.7676 95.22 16.7881 95.1688C16.6856 95.7192 16.6036 96.2849 16.5626 96.8763C16.5702 96.8635 16.5779 96.8532 16.5856 96.8404C16.3985 99.4259 16.7959 102.247 17.8342 104.474C17.9034 104.602 18.0495 104.518 18.0367 104.384C17.8931 103.614 17.8752 102.913 17.9034 102.193C18.0496 102.882 18.2777 103.576 18.493 104.233C18.9366 105.575 19.5262 106.944 20.2364 108.158C20.7081 108.967 21.3722 110.05 22.2003 110.544C22.3618 110.628 22.431 110.364 22.3925 110.267C22.2387 109.763 22.0515 109.274 21.9156 108.764C22.0105 109.11 22.1413 109.435 22.3105 109.758C22.6412 110.375 23.018 110.953 23.4411 111.509C24.141 112.464 25.1537 113.505 26.1895 114.112C26.2279 114.145 26.2612 114.184 26.2971 114.212C26.3381 114.255 26.3817 114.245 26.3997 114.215C26.5099 114.222 26.5638 114.048 26.5228 113.953C26.2433 113.28 25.7049 112.666 25.3511 112.01C24.9409 111.204 24.6563 110.331 24.3666 109.471C23.7154 107.446 23.7462 105.357 23.8436 103.276C23.9923 103.624 24.1282 103.97 24.2871 104.3C24.7358 105.303 25.3075 106.189 25.8228 107.147C26.0459 107.549 26.3535 107.904 26.7996 108.037C26.9483 108.091 27.0201 107.912 26.9791 107.797C26.5125 106.448 26.174 105.088 26.0381 103.67C25.9638 102.859 26.092 102.091 26.2843 101.333C26.3894 100.865 26.533 100.417 26.6817 99.9686C26.7637 100.286 26.8868 100.606 27.0483 100.908C27.0996 100.987 27.2149 100.98 27.2431 100.88C27.7328 99.1725 28.1353 97.5265 28.9045 95.9214C28.9301 96.0136 28.9634 96.1006 28.9942 96.1902C28.9198 96.4718 28.8122 96.7585 28.7609 97.0376C28.5558 98.1486 28.3968 99.2903 28.4917 100.424C28.5558 101.382 28.4558 102.613 28.9173 103.481C29.0019 103.634 29.1634 103.578 29.207 103.442C29.2788 103.176 29.3583 102.913 29.4172 102.641C29.53 102.191 29.5454 102.142 29.4839 102.506C29.489 102.892 29.4505 103.261 29.4685 103.645C29.5121 104.85 30.0146 106.094 30.4196 107.216C31.2375 109.617 32.3732 112.126 34.155 113.976C34.2678 114.092 34.4242 113.956 34.3986 113.825C34.0474 112.528 34.0679 111.35 34.1781 110.027C34.2602 108.892 34.3473 109.991 34.437 110.462C34.5601 111.158 34.6857 111.836 34.8857 112.504C35.1036 113.367 35.4395 114.148 35.824 114.911C36.124 115.648 36.4521 116.373 36.8341 117.071C37.3084 117.985 37.8058 119.053 38.6852 119.649C38.7185 119.68 38.7518 119.667 38.7852 119.644C38.7903 119.531 38.7801 119.429 38.7878 119.316C38.7878 119.314 38.7775 119.306 38.7723 119.304C38.7852 119.288 38.7877 119.265 38.78 119.25C38.639 117.596 39.5312 116.25 39.844 114.683C40.0286 113.669 39.767 112.556 39.8952 111.537C40.7849 113.009 40.7183 115.343 41.0644 116.933C41.4874 116.357 41.8873 115.773 42.2591 115.162C43.0359 113.385 43.6461 111.427 43.9358 109.63C44.1152 108.565 44.0178 107.589 43.8742 106.566C44.0716 107.218 44.2896 107.863 44.4998 108.511C44.5177 108.567 44.5305 108.629 44.551 108.685C44.551 108.685 44.5536 108.683 44.5562 108.68C44.8792 109.666 45.2125 110.646 45.5663 111.616C45.5663 111.619 45.5663 111.621 45.5689 111.624C46.3047 113.651 47.1071 115.656 47.9736 117.635C48.0326 117.775 48.0916 117.919 48.1505 118.059H48.1531C48.2582 118.298 48.3506 118.541 48.4582 118.779C48.6813 119.273 48.9325 119.762 49.1633 120.256C49.2607 120.466 49.3606 120.676 49.4581 120.886C49.4606 120.886 49.4632 120.886 49.4632 120.883C51.2707 124.672 53.3319 128.389 55.6496 131.957C55.6701 131.99 55.6905 132.021 55.711 132.054C55.7136 132.054 55.7136 132.054 55.7136 132.054C56.4212 133.142 57.1365 134.228 57.8903 135.285C57.9723 135.4 58.0518 135.515 58.1338 135.633C58.1313 135.633 58.1312 135.633 58.1287 135.636C58.2671 135.823 58.4056 136.012 58.5184 136.204C58.5235 136.202 58.5261 136.202 58.5312 136.199C60.3361 138.772 62.2281 141.347 65.2508 143.09C65.2534 143.09 65.2534 143.093 65.2534 143.093C66.061 143.559 66.9224 143.981 67.9145 144.309C67.9376 144.316 67.9632 144.319 67.9863 144.327C67.9581 145.63 67.9273 146.933 67.8991 148.233C67.8607 149.948 67.8197 151.658 67.7812 153.376H67.7838C67.6992 157.139 67.6171 160.9 67.5325 164.665C67.5299 164.665 67.5274 164.665 67.5248 164.663C67.5146 165.159 67.5094 165.653 67.4992 166.15C67.4658 167.647 67.4326 169.142 67.3993 170.64C67.3993 170.64 67.3992 170.648 67.3941 170.653C67.3967 170.653 67.3967 170.653 67.3993 170.655C67.348 172.964 67.2966 175.276 67.2454 177.588C67.2428 177.585 67.2428 177.585 67.2403 177.585C67.2249 178.299 67.2044 179.008 67.1864 179.725C67.189 179.725 67.1941 179.728 67.1967 179.728C67.1659 181.156 67.1326 182.584 67.1018 184.013C67.0838 184.773 67.0454 186.447 66.9941 188.785C66.989 189.035 66.9839 189.258 66.9762 189.524C66.9608 190.246 66.9428 191.019 66.9249 191.849C66.9223 191.849 66.9224 191.846 66.9198 191.846C66.9172 192.287 66.9044 192.763 66.8941 193.226C66.8147 197.03 66.7198 201.684 66.6327 206.717C66.6301 206.717 66.625 206.717 66.6224 206.717C66.6327 206.814 66.6352 206.911 66.6275 207.009C66.6147 207.812 66.5993 208.621 66.5865 209.44H66.5839C66.5737 209.865 66.5711 210.293 66.566 210.715C66.5481 211.883 66.5301 213.06 66.5122 214.248C66.5019 214.844 66.4968 215.446 66.4865 216.045C66.4788 216.649 66.4685 217.253 66.4609 217.857C66.4532 218.398 66.4455 218.935 66.4378 219.478C66.402 222.401 66.3737 225.307 66.3532 228.128C66.3481 228.476 66.3404 228.829 66.3429 229.175C66.3429 229.175 66.343 229.175 66.3455 229.175C66.3071 235.047 66.3096 240.456 66.3839 244.678C66.3814 244.678 66.3763 244.675 66.3737 244.675C66.3942 245.597 66.4173 246.439 66.4404 247.237C66.4429 247.286 66.443 247.33 66.4455 247.378C66.4506 247.557 66.4557 247.749 66.4634 247.921C66.5685 251.899 66.7557 254.41 67.0608 254.525C68.6939 255.145 70.3424 255.647 71.9807 256C71.8807 255.608 71.814 255.199 71.7217 254.802C71.8268 254.825 71.9293 254.858 72.0319 254.881C72.0319 254.881 72.0319 254.884 72.0319 254.886C72.0575 254.892 72.0832 254.894 72.1088 254.899C72.7831 255.045 73.4599 255.148 74.1342 255.245C74.4008 255.283 74.6675 255.342 74.9341 255.373C75.8571 255.478 76.78 255.534 77.7004 255.534C78.39 255.526 79.0746 255.465 79.7412 255.368C79.7412 255.36 79.7412 255.352 79.7412 255.345C80.6257 255.222 81.4948 255.022 82.3511 254.751C82.3408 255.15 82.3331 255.537 82.3228 255.936C84.3123 255.317 86.2402 254.326 88.122 253.041C88.1041 252.667 88.0887 252.291 88.0708 251.92C88.0733 251.917 88.0785 251.914 88.081 251.912C87.8016 246.165 87.5529 240.423 87.2991 234.684C87.2812 234.215 87.2606 233.742 87.2401 233.276C87.2375 233.276 87.2376 233.278 87.235 233.278C87.1684 231.758 87.094 230.237 87.0299 228.717C87.0324 228.714 87.035 228.714 87.0401 228.714C87.0017 227.772 86.9607 226.835 86.9196 225.896C86.7658 222.204 86.6274 218.515 86.4838 214.826C86.4838 214.824 86.4863 214.824 86.4863 214.821C86.4735 214.489 86.4582 214.148 86.4479 213.808C86.4454 213.808 86.4453 213.81 86.4428 213.81C86.3428 211.199 86.23 208.588 86.1351 205.974C86.1403 205.969 86.1454 205.964 86.148 205.962C86.13 205.478 86.1224 204.976 86.0967 204.487C86.0916 204.492 86.0838 204.495 86.0787 204.497C85.9557 201.167 85.8505 197.836 85.7352 194.509C85.7403 194.506 85.7429 194.506 85.748 194.503C85.7377 194.209 85.7275 193.904 85.7147 193.61C85.7121 193.613 85.707 193.613 85.7044 193.615C85.6634 192.404 85.6198 191.196 85.5788 189.983C85.5865 189.98 85.5942 189.98 85.6019 189.975C85.548 188.329 85.4917 186.678 85.4327 185.029C85.425 185.034 85.4173 185.037 85.4096 185.039C85.3865 184.312 85.3583 183.585 85.3352 182.861C85.307 181.968 85.2814 181.074 85.2558 180.183C85.2609 180.181 85.266 180.178 85.2711 180.176C85.2583 179.707 85.243 179.236 85.2225 178.765C85.2199 178.765 85.2148 178.768 85.2122 178.768C85.1353 176.32 85.0635 173.871 84.9917 171.421C84.9764 171.167 84.9737 170.914 84.9712 170.658C84.9199 168.933 84.8661 167.205 84.8148 165.479C84.8174 165.477 84.8199 165.474 84.8225 165.472C84.8199 165.397 84.8174 165.32 84.8097 165.249C84.7584 163.48 84.6994 161.711 84.6507 159.942C84.3815 150.788 84.1611 141.629 83.9303 132.469C84.1816 132.485 84.4328 132.502 84.684 132.451C85.4685 132.295 86.1607 132.057 86.8171 131.778H86.8197C89.5603 130.618 91.3216 128.535 93.1188 126.566C96.3953 122.954 99.318 119.019 101.797 114.936C103.623 111.923 105.24 108.816 106.627 105.59C107.03 106.138 107.46 106.66 107.958 107.101C108.042 107.177 108.153 107.067 108.119 106.97C107.801 106.046 107.74 105.181 107.737 104.198C107.727 103.358 107.876 104.162 107.96 104.5C108.094 105.007 108.222 105.498 108.404 105.977C108.617 106.594 108.901 107.154 109.247 107.687C109.496 108.212 109.788 108.726 110.104 109.218C110.511 109.86 110.937 110.613 111.614 110.999C111.655 111.017 111.665 111.015 111.698 110.989C111.683 110.912 111.673 110.833 111.67 110.759C111.67 110.748 111.67 110.748 111.66 110.746C111.662 110.733 111.662 110.715 111.66 110.702C111.465 109.497 112.042 108.455 112.167 107.293C112.252 106.527 111.998 105.726 112.029 104.976C112.765 106 112.857 107.72 113.198 108.869C113.48 108.424 113.742 107.973 113.965 107.5C114.452 106.151 114.777 104.674 114.895 103.332C114.972 102.375 114.79 101.548 114.58 100.614C114.662 101.039 115.031 101.553 115.198 101.973C115.464 102.57 115.662 103.202 115.859 103.834C115.872 103.885 115.916 103.903 115.962 103.921C116.023 103.811 116.072 103.701 116.121 103.591C116.336 101.784 116.603 100.038 116.223 98.2228C116.141 97.7825 116.008 97.3652 115.9 96.93C115.918 96.9505 115.595 96.0981 115.762 96.4488C116.275 97.4215 116.78 98.3277 117.131 99.3645C117.159 99.4797 117.298 99.4336 117.292 99.321C117.267 97.8542 117.392 96.3694 117.221 94.9052C117.1 93.7788 116.646 92.504 116.098 91.439C116.444 91.8742 116.746 92.4016 116.993 92.8214C117.295 93.3206 117.549 93.8146 117.731 94.3317C117.756 94.5493 117.774 94.749 117.782 94.9692C117.782 95.0152 117.828 94.9922 117.833 94.9512C117.841 94.8642 117.841 94.7592 117.844 94.662C117.874 94.749 117.895 94.8232 117.926 94.9103C117.941 94.941 117.982 94.9103 117.982 94.8949C117.928 94.7439 117.887 94.6108 117.849 94.4853C117.859 93.2258 117.528 91.8742 117.167 90.7146C117.136 90.6199 117.1 90.5277 117.069 90.433C117.072 90.3229 117.077 90.2128 117.077 90.0977C117.526 90.5892 117.905 91.1114 118.269 91.6438C118.341 91.7488 118.418 91.8512 118.487 91.9587C118.831 92.4758 119.159 93.0031 119.502 93.5382C119.546 93.6073 119.628 93.5919 119.648 93.5126C119.713 93.2361 119.728 92.9724 119.728 92.7011C120.3 93.5458 120.864 94.3778 121.056 95.4171C121.277 96.5461 121.33 97.6724 121.287 98.8218C121.261 98.9216 121.371 99.042 121.471 98.978C121.782 98.7706 121.938 98.4173 122.017 98.059C122.207 97.2039 122.438 96.3899 122.558 95.5093C122.599 95.22 122.638 94.9128 122.669 94.6082C123.225 96.2056 123.72 97.8106 123.676 99.513C123.656 100.248 123.63 100.972 123.497 101.699C123.381 102.29 123.102 102.887 123.035 103.471C123.025 103.542 123.099 103.67 123.181 103.645C123.217 103.66 123.235 103.663 123.271 103.624C123.287 103.593 123.297 103.55 123.327 103.509C123.989 102.805 124.53 101.771 124.866 100.88C125.055 100.35 125.227 99.815 125.322 99.2775C125.386 98.9933 125.412 98.7066 125.432 98.4199C125.422 98.8372 125.402 99.2596 125.386 99.6845C125.381 99.769 125.496 99.9533 125.596 99.8509C126.117 99.2775 126.391 98.297 126.558 97.5726C126.801 96.6408 126.917 95.6629 126.973 94.7004C126.976 94.7311 126.981 94.7592 126.983 94.79C126.999 94.5672 127.014 94.3496 127.019 94.1321C127.045 93.574 127.055 92.9929 127.004 92.4272C127.204 92.9724 127.34 93.5177 127.414 94.1577C127.44 94.2498 127.56 94.2959 127.578 94.1756C127.973 91.7078 127.363 88.7332 126.191 86.5394C126.086 86.3423 125.935 86.1784 125.814 85.9916C126.055 86.094 126.296 86.1887 126.532 86.309C126.763 86.5138 126.999 86.821 127.258 86.8722C127.317 86.8824 127.363 86.8235 127.373 86.78C127.442 86.3115 127.358 85.8226 127.304 85.3618C127.268 85.1161 127.204 84.9113 127.124 84.7295C127.399 84.9983 127.701 85.221 128.017 85.4361C128.709 85.9352 129.46 86.4421 130.27 86.7032C130.56 87.1845 130.896 87.6504 131.242 88.1009C131.673 88.6513 132.249 89.0967 132.66 89.6548C132.795 89.8442 132.975 90.1463 133.242 90.1898C133.262 90.1898 133.283 90.1744 133.283 90.1616C133.483 89.8135 133.252 88.979 133.067 88.3748C133.447 88.8459 133.788 89.3271 134.075 89.8749C134.482 90.6199 134.593 91.3904 134.772 92.1942C134.805 92.3017 134.911 92.312 134.977 92.2403C135.354 91.8409 135.272 90.945 135.323 90.4279C135.339 90.2154 135.344 89.9901 135.331 89.7751C135.475 90.3204 135.575 90.8861 135.605 91.4339C135.675 92.4579 135.534 93.3743 135.449 94.3752C135.449 94.4034 135.441 94.4367 135.464 94.4623C136.033 93.7865 136.48 93.0006 136.715 92.1379C136.98 91.2419 136.926 90.3485 137 89.4397C136.992 89.4013 136.987 89.3834 136.98 89.3604C136.967 88.7563 136.9 88.1572 136.774 87.5736C136.698 84.4966 135.572 81.7933 133.421 79.4664C131.942 77.8587 130.221 76.5993 128.26 75.7827C128.365 75.775 128.473 75.7878 128.576 75.7724C128.996 76.0361 129.437 76.2537 129.883 76.4662C130.434 76.7247 131.034 76.8373 131.58 77.1061C131.76 77.2008 132.016 77.3647 132.237 77.2853C132.247 77.2802 132.257 77.2623 132.252 77.2495C132.272 76.9013 131.77 76.3535 131.391 75.9644C131.862 76.1769 132.321 76.4201 132.752 76.7196C133.357 77.1266 133.739 77.6795 134.203 78.2274C134.272 78.3042 134.362 78.2606 134.385 78.1736C134.511 77.7231 134.103 77.0729 133.934 76.6479C133.854 76.4738 133.777 76.3074 133.68 76.1385C134.008 76.5097 134.3 76.8988 134.539 77.316C134.995 78.0738 135.257 78.8392 135.569 79.643C135.585 79.6711 135.605 79.6865 135.623 79.6967C135.8 78.9569 135.839 78.1736 135.677 77.4108C135.523 76.6274 135.136 75.9618 134.823 75.2323C134.808 75.2169 134.798 75.1939 134.79 75.176C134.526 74.7229 134.244 74.2954 133.913 73.8858C132.644 71.5511 130.711 69.923 128.137 68.9733C126.589 68.3999 124.991 68.1337 123.379 68.1695C124.315 67.8367 125.294 67.5858 126.23 67.3068C126.304 67.2889 126.345 67.1609 126.271 67.1071C125.866 66.7923 125.179 66.7283 124.538 66.7513C125.268 66.48 125.994 66.2112 126.765 66.0371C128.063 65.7248 129.35 65.9603 130.652 66.0525C130.727 66.055 130.752 65.9449 130.721 65.8937C130.332 65.2512 129.619 64.9952 128.883 64.8877C130.311 64.6624 131.913 64.1121 133.195 64.6112C133.447 64.6727 133.677 64.7827 133.9 64.9235C133.921 64.9184 133.924 64.9159 133.924 64.9159C134.111 65.0464 134.267 65.1898 134.429 65.3357C134.782 65.6813 135.103 66.0729 135.408 66.416C135.416 66.4057 135.416 66.4057 135.408 66.3801C135.4 66.3264 135.387 66.2598 135.39 66.2035C135.382 66.2009 135.38 66.1881 135.375 66.1805C135.326 65.9142 135.272 65.6506 135.208 65.3997C135.195 65.3485 135.193 65.3075 135.182 65.2742C135.18 65.2563 135.167 65.2486 135.17 65.2435C134.77 63.6871 134.013 62.2484 132.793 61.1323C131.926 60.349 130.739 59.7807 129.598 59.5196C129.293 59.4556 129.014 59.4505 128.747 59.4684C128.737 59.4377 128.717 59.4146 128.706 59.4146C127.46 59.0614 126.112 58.8796 124.861 59.0972C124.174 59.215 123.479 59.3813 122.817 59.6066C122.346 59.7551 121.961 59.9983 121.561 60.2287C121.723 60.0981 121.912 59.988 122.066 59.8677C122.135 59.8165 122.192 59.5861 122.035 59.6066C120.523 59.8242 118.936 60.6306 117.687 61.4677C117.341 61.6981 116.972 61.9412 116.605 62.1972C116.618 60.82 116.572 59.4453 116.436 58.0963C116.341 56.9648 116.216 55.7821 115.959 54.6327C116.508 55.7079 116.926 56.7805 117.264 58.04C117.308 58.2396 117.595 58.2857 117.605 58.04C117.721 52.9457 115.711 47.0528 112.737 42.9288C112.314 42.3401 111.855 41.7871 111.37 41.2572C112.408 41.7282 113.434 42.2223 114.418 42.8316C114.731 43.1976 115.062 43.7173 115.475 43.8299C115.557 43.8581 115.654 43.7838 115.677 43.6968C115.834 42.9826 115.782 42.1865 115.741 41.4543C115.741 41.0678 115.664 40.7376 115.562 40.4329C115.962 40.8937 116.395 41.2777 116.864 41.6719C117.89 42.5602 118.987 43.469 120.254 44.004C120.638 44.8155 121.084 45.5911 121.582 46.3565C122.181 47.2884 122.994 48.0691 123.574 49.024C123.779 49.3491 123.999 49.8508 124.435 49.9404C124.456 49.9455 124.486 49.9302 124.491 49.902C124.853 49.39 124.602 48.0538 124.422 47.0503C124.927 47.8618 125.414 48.6809 125.784 49.5667C126.314 50.8031 126.373 52.0421 126.555 53.3323C126.576 53.5243 126.75 53.5422 126.871 53.4372C127.522 52.8664 127.532 51.4405 127.681 50.629C127.74 50.2962 127.776 49.9379 127.796 49.5948C127.937 50.4857 128.001 51.3842 127.981 52.2597C127.929 53.8878 127.576 55.3162 127.286 56.8906C127.286 56.9392 127.291 56.9878 127.306 57.0262C128.324 56.0509 129.134 54.8657 129.639 53.5499C130.165 52.165 130.229 50.7493 130.47 49.3184C130.46 49.2697 130.465 49.2339 130.455 49.1878C130.524 48.2381 130.496 47.296 130.391 46.3361C130.716 41.4799 129.34 37.0334 126.276 33.045C123.422 29.2922 119.782 26.4814 115.249 25.0146C113.834 24.5564 112.357 24.2774 110.86 24.1366C111.286 23.9062 111.714 23.6988 112.155 23.5529C112.27 23.5171 112.301 23.3456 112.234 23.2611C111.583 22.1962 110.086 21.464 108.978 20.9623C108.476 20.7268 107.945 20.4964 107.399 20.2865C110.847 19.7719 114.116 19.4417 117.395 21.0032C117.631 21.1133 117.674 20.7575 117.608 20.6218C116.867 18.9886 114.226 17.7982 112.762 17.0124C112.047 16.6386 111.321 16.3673 110.588 16.1548C114.606 15.4124 118.692 15.0668 122.479 16.3417C122.479 16.3724 122.505 16.4005 122.53 16.4159C122.556 16.4313 122.589 16.4466 122.63 16.462C123.497 16.6898 124.332 16.9868 125.184 17.2555C125.22 17.2709 125.237 17.2888 125.263 17.2939C125.348 17.3144 125.443 17.3375 125.525 17.3554L125.535 17.3605C125.55 17.3528 125.561 17.3631 125.571 17.3631L125.566 17.3528C125.655 17.3579 125.686 17.2325 125.63 17.1531C125.65 17.1531 125.66 17.1557 125.671 17.1634C124.584 15.4099 122.571 14.0377 120.823 13.1187C119.577 12.4583 118.385 12.0333 117.154 11.7133C119.595 11.3345 122.22 11.2065 124.358 12.6144C124.504 12.7092 124.573 12.5044 124.522 12.3943C124.056 11.2807 122.53 10.3899 121.543 9.8395C120.546 9.284 119.574 8.69522 118.508 8.36499C118.703 8.30611 118.902 8.26004 119.108 8.24212C120.128 8.14484 121.146 8.09108 122.161 8.23444C123.353 8.39827 124.645 8.59282 125.786 9.01265C126.483 9.26608 127.073 9.74478 127.765 9.94446C127.819 9.95981 127.83 9.91886 127.824 9.88302C127.883 9.85998 127.929 9.78318 127.876 9.69358C125.007 4.96032 120.525 1.86283 115.131 0.646879C112.475 0.0504211 109.568 -0.223489 106.873 0.216814C104.438 0.60848 102.61 1.71948 100.554 2.80744C101.341 2.06763 102.202 1.37389 102.656 0.457445C102.715 0.32689 102.602 0.142577 102.453 0.163057C98.718 0.920789 95.4903 2.7076 92.4369 4.92192C90.0013 6.70618 87.8939 8.69778 86.3274 11.1937C86.5941 10.2875 86.9068 9.40431 87.0709 8.46995C87.0914 8.37779 87.0401 8.26516 86.9606 8.19092C86.8068 8.33683 86.6505 8.48019 86.471 8.63122C85.5276 9.50927 84.7738 10.8225 84.0303 11.8618C83.0125 13.2595 82.0767 14.7008 81.1564 16.1573C79.6617 18.8145 78.4234 21.6227 77.6286 24.477C77.6055 23.2918 77.4876 22.063 77.1312 21.1722C77.1184 21.1415 77.0928 21.1031 77.0672 21.0749C76.7544 21.7277 76.4083 22.3523 76.0622 22.9974C75.3674 25.1068 74.8366 27.3979 74.5495 29.5201C74.5444 29.2385 74.5777 28.9697 74.5623 28.683C74.4675 26.6837 74.3316 23.9676 73.2933 22.2243C73.2394 22.1322 73.1343 22.1987 73.1471 22.2704C73.2061 22.5955 73.2728 22.9001 73.3394 23.2099C73.3676 23.4659 73.3804 23.7347 73.3907 23.9983C73.083 22.0246 72.4421 20.1482 71.555 18.3563C70.004 15.2025 67.8607 11.9284 64.9227 9.8907C64.4817 9.10481 63.9433 8.40595 63.5023 7.88629C63.2716 7.62774 62.9717 7.84277 63.0896 8.14484C63.2921 8.71314 63.4151 9.17648 63.4792 9.68334C62.041 7.53558 59.4029 6.19419 57.2288 4.95264C54.8266 3.58309 51.8039 2.3057 49.0094 2.0881C48.7223 2.06763 48.8582 2.47977 48.9889 2.57705C49.2838 2.79208 49.6478 2.95847 49.9734 3.16838C49.1991 2.79976 48.4582 2.38505 47.5942 2.18026C46.338 1.86795 45.0792 1.62476 43.7819 1.50445C41.4335 1.27662 38.9877 1.7758 36.7854 2.57193C36.7316 2.58729 36.7188 2.6308 36.7085 2.68968C36.2137 2.67944 35.6907 2.7332 35.1472 2.8868C33.0936 3.49093 30.9811 4.69665 29.4967 6.25819C27.4098 8.43923 26.2177 11.1758 25.6716 14.0864C25.6716 14.1017 25.6485 14.112 25.6562 14.135C25.6331 14.2144 25.6177 14.2937 25.6126 14.3705C25.5229 14.8544 25.4614 15.351 25.4152 15.8348C25.4408 15.7938 25.4588 15.7452 25.4947 15.694L25.5024 15.7017C25.4588 15.7734 25.4357 15.8348 25.4024 15.8732C25.3998 15.9833 25.387 16.0959 25.3716 16.2034C25.3691 16.2265 25.3767 16.2393 25.3895 16.2674C25.8946 15.5916 26.4356 14.8236 27.0509 14.1657C27.3201 13.8662 27.6072 13.5846 27.92 13.321C27.92 13.3287 27.9405 13.3286 27.9482 13.3363C28.3353 13.0445 28.7506 12.8064 29.2018 12.6631C31.4887 11.5956 34.5012 12.3892 37.1418 12.6272C35.8138 12.9421 34.5165 13.4848 33.9089 14.7033C33.8551 14.8057 33.9217 15.0054 34.0601 14.9849C36.4444 14.6598 38.7365 14.0608 41.172 14.4499C42.6052 14.6828 43.9742 15.1001 45.356 15.479C44.1895 15.5378 42.9154 15.7401 42.2078 16.3545C42.077 16.4697 42.177 16.7 42.3154 16.7282C44.0203 17.1045 45.7868 17.4245 47.4993 17.8904C44.5946 18.0491 41.7565 18.7966 39.0236 20.0279C34.437 22.0861 31.0913 25.3372 29.0609 29.7581C28.5122 30.5466 28.0251 31.3734 27.6457 32.2387C27.6098 32.2745 27.5995 32.3027 27.5738 32.3411C27.1021 33.7106 26.4868 34.9957 26.292 36.46C26.0945 37.8551 26.2433 39.2835 26.6688 40.6275C26.7022 40.5968 26.7381 40.5635 26.7586 40.5123C27.2457 38.9994 27.6123 37.571 28.3481 36.122C28.748 35.3336 29.2429 34.5733 29.7787 33.8668C29.6326 34.1765 29.5018 34.4991 29.3967 34.8319C29.1326 35.6101 28.4712 36.867 28.7635 37.6913C28.825 37.8321 28.9865 37.8961 29.0968 37.745C29.8685 36.6878 30.5094 35.628 31.5605 34.7909C32.322 34.1868 33.1321 33.6953 33.9602 33.2345C33.3218 34.0255 32.4706 35.0853 32.5399 35.7048C32.5501 35.7355 32.5629 35.7688 32.5963 35.7739C32.9936 35.8891 33.4372 35.5512 33.7756 35.3618C34.719 34.8037 35.8291 34.5144 36.8008 33.9743C37.593 33.5314 38.3647 33.0706 39.0877 32.5331C39.2621 32.5484 39.4363 32.5407 39.6107 32.5459C36.1419 34.2943 33.1783 36.8132 30.6863 39.9184C27.6149 43.7634 25.9151 48.0128 25.6074 52.6411C23.5462 51.182 21.3644 50.0044 18.8443 49.4668C18.7417 49.4438 18.652 49.5897 18.7007 49.6819C19.0212 50.3602 19.657 50.8799 20.2339 51.4303C18.7289 50.6213 17.3906 49.7791 15.5883 49.4822C13.6014 49.1264 11.4427 49.3184 9.48657 49.7382C5.49481 50.5906 2.18244 52.8459 0.0160642 56.3248C-0.0223921 56.3811 0.0135505 56.4451 0.0673894 56.4707C0.0238056 56.5066 0.0417518 56.5322 0.0673894 56.5245ZM110.555 80.8513C110.524 80.7028 110.504 80.5543 110.478 80.4033C110.555 80.5364 110.64 80.6644 110.727 80.7898C110.719 80.8001 110.706 80.8078 110.698 80.818C110.652 80.8308 110.601 80.8359 110.555 80.8513ZM63.1485 61.8465C63.0511 61.7646 62.9357 61.6955 62.8178 61.6341C62.9947 61.2834 63.187 60.9454 63.3921 60.5845C63.4613 60.5717 63.5279 60.5538 63.5997 60.541C63.4356 60.9685 63.2869 61.4011 63.1485 61.8465ZM59.144 62.9959C59.8182 62.8167 60.4976 62.6606 61.1821 62.5223C61.159 62.7527 61.1385 62.9831 61.1231 63.2161C60.4694 63.0983 59.808 63.0369 59.144 62.9959ZM61.3462 61.2373C61.1872 61.2194 61.0283 61.2014 60.8719 61.1938C61.0385 61.1502 61.2078 61.1067 61.3744 61.0606C61.3642 61.1195 61.3539 61.1784 61.3462 61.2373ZM61.9589 63.4081C62.1128 63.0497 62.2692 62.6913 62.4589 62.3304C62.4692 62.3073 62.4845 62.2792 62.4947 62.2587C62.6819 62.2203 62.8717 62.187 63.0563 62.146C62.9153 62.6247 62.7947 63.0983 62.6896 63.5796C62.4512 63.5079 62.2051 63.467 61.9589 63.4081ZM40.6772 78.7317C40.6157 78.7445 40.549 78.7445 40.4849 78.7598C40.4644 78.6114 40.4593 78.4629 40.4439 78.3144C40.5157 78.4552 40.5952 78.5934 40.6772 78.7317ZM88.6758 69.5442C88.8271 69.5595 88.9758 69.5646 89.127 69.5826C88.9681 69.6414 88.8194 69.7336 88.663 69.8027C88.6655 69.7157 88.6707 69.6312 88.6758 69.5442ZM110.391 69.3087C109.986 70.3198 109.717 71.354 109.622 72.4369C109.609 72.2858 109.611 72.1425 109.606 72.0017C109.632 71.8404 109.658 71.6663 109.686 71.5025C109.686 71.4513 109.622 71.418 109.604 71.4667C109.083 72.4625 109.129 73.937 109.153 75.0224C109.155 75.1785 109.183 75.3219 109.191 75.4755C108.963 74.3414 108.591 73.1127 108.127 71.9914C107.917 71.6612 107.701 71.3284 107.512 70.9854C107.501 71.0059 107.481 71.0315 107.481 71.0391C107.314 71.5307 107.304 72.2116 107.33 72.8541C106.784 71.331 106.015 69.859 105.112 68.4767C105.015 68.3436 104.912 68.2233 104.815 68.0927C104.94 66.8384 104.945 65.5917 104.868 64.368C104.876 64.3808 104.884 64.3911 104.889 64.4039C104.845 63.6231 104.743 62.8654 104.617 62.1256C104.638 62.1844 104.671 62.2356 104.692 62.2971C105.435 64.5293 105.832 66.8076 106.038 69.1397C106.048 69.3445 106.279 69.557 106.463 69.388C107.05 68.9042 107.276 68.1593 107.335 67.3964C107.478 65.6096 107.732 63.8791 107.755 62.0795C107.768 61.4805 107.758 60.8584 107.732 60.2312C109.053 62.8551 110.245 65.5149 110.806 68.3871C110.663 68.6968 110.516 69.004 110.391 69.3087ZM41.3284 50.1887C41.8694 49.7433 42.3924 49.2979 42.8769 48.7808C42.7436 49.1392 42.6616 49.5129 42.6334 49.9635C42.5872 50.8031 42.4949 51.7247 42.6692 52.5643C42.6872 52.6642 42.7948 52.7537 42.8897 52.7256C43.3768 52.6027 43.7614 51.9986 44.1332 51.5967C44.5357 51.3586 44.9536 51.164 45.3638 50.9541C45.1792 51.2972 44.9869 51.6351 44.8253 51.9909C43.6435 54.6225 42.9128 57.8019 42.7923 60.9122C42.3231 61.6417 41.8847 62.3816 41.5104 63.1265C40.8464 64.4474 40.3516 65.8246 40.1132 67.2915C40.1132 67.0867 40.1389 66.887 40.1594 66.6976C40.2081 66.4774 40.2517 66.247 40.3029 66.0166C40.3081 65.9475 40.2363 65.9117 40.1927 65.9705C39.4159 67.2556 39.2877 69.2651 39.1954 70.732C39.1851 70.9086 39.2056 71.0724 39.2005 71.2465C39.0005 69.7106 38.6416 68.0543 38.134 66.5312C37.8904 66.0499 37.6443 65.5814 37.4212 65.0951C37.4007 65.1232 37.3776 65.1488 37.3776 65.1718C37.0982 65.8272 37.0136 66.7308 36.9752 67.6012C36.4086 65.497 35.5189 63.426 34.437 61.4446C33.9602 60.6741 33.45 59.9189 32.9398 59.1637C33.1039 58.9564 33.2398 58.7158 33.3629 58.5238C34.0576 57.4358 35.0293 56.5654 35.76 55.4928C36.3368 54.6199 36.8777 53.7291 37.3443 52.8024C38.8185 52.2085 40.1235 51.182 41.3284 50.1887ZM32.1348 57.9401C32.0143 57.7609 31.8912 57.5792 31.7682 57.3949C32.004 57.0083 32.1912 56.5936 32.4501 56.2122C32.3296 56.7498 32.2015 57.3667 32.1348 57.9401ZM83.5304 117.734C83.3535 110.434 83.5278 97.4395 83.374 83.9488C84.4533 82.1363 85.3199 80.1729 86.0018 78.2402C86.5453 76.7324 87.2401 75.0403 87.3324 73.4224C87.3658 72.9079 87.3196 72.3959 87.3144 71.8762C87.3119 71.8609 87.3119 71.8583 87.3094 71.8455C87.3247 71.843 87.3401 71.8404 87.358 71.8378C87.3734 71.907 87.3888 71.9684 87.4068 72.0657C87.4914 72.4266 87.576 72.7748 87.6862 73.1332C87.7401 73.3328 87.9708 73.4045 88.0656 73.2176C88.3194 72.7594 88.4374 72.2167 88.5143 71.6612C89.3296 71.6049 90.1577 71.6382 91.0088 71.7022C90.7268 71.8481 90.4371 71.9914 90.1705 72.1322C89.5962 72.4471 88.8066 72.9079 88.4887 73.5018C88.4656 73.5555 88.4913 73.6349 88.5502 73.6631C89.4783 73.896 90.3397 74.5616 91.2472 74.9046C91.3882 74.9584 91.5498 74.9737 91.6985 75.0198C91.4473 76.3945 91.1114 77.7461 90.6474 79.067C90.5935 79.2232 90.6833 79.4612 90.8807 79.3896C91.4883 79.2232 91.9164 78.7522 92.219 78.1915C92.7291 77.2623 93.2675 76.3586 93.7751 75.4243C94.1136 75.4575 94.452 75.5036 94.7827 75.5241C94.6135 75.5779 94.4443 75.6265 94.2802 75.6854C94.1674 75.7212 94.1597 75.8876 94.2443 75.9516C94.4724 76.0975 94.7186 76.1999 94.9673 76.3049C94.9314 77.3775 94.8416 78.4424 94.634 79.4971C92.3881 80.5722 90.2833 82.0775 88.9655 84.1996C87.517 86.5573 86.6428 89.8212 86.8889 92.5859C86.9094 92.7241 87.0555 92.6857 87.0863 92.5756C87.217 91.887 87.3965 91.2854 87.6682 90.6813C87.5606 91.3085 87.5375 91.9638 87.5247 92.5731C87.4862 93.8454 87.5503 95.1816 87.7887 96.4309C87.9426 97.2526 88.1682 98.361 88.7143 99.0266C88.822 99.1572 88.9629 98.9524 88.9706 98.8602C88.9783 98.3892 88.9732 97.9258 89.0065 97.4497C88.9937 97.7722 89.0066 98.0871 89.0578 98.4097C89.1348 99.0215 89.2809 99.6333 89.4629 100.222C89.7757 101.241 90.2961 102.421 90.9934 103.258C91.0139 103.299 91.0345 103.337 91.055 103.376C91.0678 103.425 91.1063 103.422 91.1447 103.409C91.2216 103.44 91.3319 103.304 91.3216 103.225C91.2806 102.575 91.0114 101.894 90.9319 101.231C90.8191 100.422 90.8524 99.6 90.8729 98.7962C90.9293 96.884 91.601 95.1304 92.3215 93.4076C92.3317 93.7455 92.3548 94.0937 92.3804 94.4085C92.4599 95.3864 92.6752 96.3182 92.806 97.2782C92.8624 97.6954 93.0214 98.0922 93.3521 98.3329C93.4649 98.4148 93.5751 98.2868 93.5803 98.1767C93.5956 96.9019 93.7264 95.6526 94.0545 94.4111C94.0597 94.3906 94.07 94.3727 94.0751 94.3522C94.0392 94.7464 94.011 95.1509 94.0212 95.5579C94.0212 95.5554 94.0238 95.5528 94.0238 95.5502C94.0392 97.4599 94.4955 99.5002 95.3954 101.072C95.4467 101.164 95.5569 101.08 95.539 100.995C95.4005 100.432 95.3441 99.9174 95.3159 99.3901C95.4621 99.8893 95.6749 100.378 95.8697 100.844C96.2722 101.814 96.7748 102.785 97.3798 103.64C97.7695 104.205 98.3155 104.971 98.9667 105.265C99.0847 105.334 99.1206 105.135 99.0898 105.068C98.9257 104.704 98.7668 104.351 98.636 103.995C98.7386 104.228 98.8462 104.472 98.9949 104.697C99.2718 105.137 99.5923 105.531 99.9179 105.913C99.923 105.918 99.9281 105.923 99.9332 105.928C99.1 107.17 98.2668 108.416 97.408 109.64C97.2695 109.837 97.1285 110.029 96.9901 110.226L96.9875 110.224C96.7516 110.544 96.5184 110.869 96.2851 111.184C96.2902 111.186 96.2953 111.189 96.3004 111.194C95.9005 111.752 95.4954 112.307 95.0878 112.858C95.0852 112.858 95.0827 112.855 95.0801 112.855C95.0186 112.927 94.9724 113.022 94.9006 113.101C94.9006 113.101 94.9032 113.101 94.9032 113.104C94.5468 113.582 94.193 114.063 93.8316 114.537C93.8187 114.527 93.8034 114.517 93.788 114.506C93.5316 114.844 93.2854 115.18 93.0265 115.51C93.0342 115.515 93.0419 115.523 93.0496 115.528C92.7624 115.894 92.4753 116.26 92.1805 116.623C92.1753 116.621 92.1677 116.616 92.1626 116.613C92.119 116.664 92.0676 116.723 92.0317 116.78C92.0369 116.782 92.042 116.787 92.0497 116.79C91.1422 117.908 90.2038 119.002 89.2398 120.077C89.2321 120.072 89.2244 120.066 89.2168 120.061C89.2168 120.066 89.2168 120.066 89.2168 120.066C89.2219 120.072 89.2296 120.077 89.2347 120.082C88.5656 120.829 87.8785 121.569 87.176 122.294C87.1735 122.291 87.1709 122.288 87.1684 122.286C87.153 122.299 87.135 122.322 87.117 122.332C87.1196 122.337 87.1196 122.342 87.1222 122.347C86.0377 123.466 84.9096 124.559 83.7329 125.624C83.6713 122.982 83.5945 120.361 83.5304 117.734ZM100.69 104.809C100.623 104.653 100.554 104.502 100.49 104.346C99.8871 102.902 99.8025 101.369 99.7436 99.8227C99.8743 100.079 100 100.314 100.131 100.545C100.52 101.259 101.002 101.878 101.425 102.562C101.538 102.731 101.682 102.866 101.841 102.979C101.454 103.591 101.084 104.208 100.69 104.809ZM47.9403 98.1485C47.8377 96.6868 47.4071 95.0767 46.8302 93.6815C47.2507 94.3061 47.5942 95.0511 47.8967 95.6424C48.2531 96.3541 48.5198 97.0427 48.7326 97.7799C48.7402 98.0666 48.7249 98.3431 48.7121 98.6221C48.7121 98.6861 48.8017 98.6733 48.8043 98.617C48.8248 98.4865 48.8248 98.361 48.8402 98.2254C48.8787 98.338 48.8966 98.4481 48.9248 98.5658C48.9427 98.6119 48.9914 98.5786 48.9914 98.5428C48.9479 98.3431 48.9068 98.1665 48.871 97.977C49.0145 96.2747 48.7094 94.4239 48.3377 92.806C48.3095 92.6806 48.2711 92.5577 48.2428 92.4323C48.2582 92.2736 48.2787 92.12 48.2864 91.951C48.6172 92.3708 48.9069 92.8035 49.1838 93.2387C49.335 93.4767 49.476 93.7199 49.617 93.9631C49.7324 94.1628 49.8503 94.3599 49.9631 94.5596C50.3861 95.3224 50.7835 96.1006 51.204 96.8814C51.2629 96.9812 51.3835 96.9659 51.4065 96.866C51.5065 96.5 51.5706 96.1365 51.6014 95.7781C52.2756 96.9864 52.9499 98.1716 53.1114 99.5975C53.2908 101.136 53.2396 102.674 53.0473 104.208C53.0217 104.346 53.137 104.518 53.2883 104.441C53.7344 104.195 53.9985 103.737 54.1241 103.258C54.4677 102.119 54.865 101.041 55.1265 99.8714C55.2214 99.4874 55.2983 99.0752 55.3752 98.6708C55.9547 100.875 56.4571 103.11 56.2084 105.408C56.111 106.402 55.9905 107.39 55.7213 108.347C55.5136 109.136 55.0624 109.909 54.9163 110.692C54.8958 110.794 54.9932 110.969 55.1034 110.946C55.1419 110.974 55.1701 110.976 55.2188 110.925C55.2445 110.874 55.2752 110.825 55.306 110.787C56.2854 109.896 57.1339 108.565 57.6672 107.38C57.98 106.688 58.2646 105.987 58.4697 105.26C58.5722 104.884 58.6337 104.495 58.6824 104.116C58.6414 104.684 58.5594 105.245 58.4979 105.823C58.485 105.936 58.6184 106.199 58.7645 106.069C59.5388 105.36 60.0028 104.057 60.3259 103.094C60.7514 101.842 61.0103 100.506 61.1924 99.1802C61.1924 99.2442 61.1949 99.3107 61.1924 99.3747C61.2282 99.0855 61.2667 98.7911 61.3 98.4839C61.3923 97.7415 61.4693 96.9608 61.4616 96.1825C61.6718 96.9556 61.7949 97.7082 61.8282 98.5581C61.8359 98.7066 62.023 98.7732 62.0512 98.6119C62.8383 95.3173 62.3307 91.224 60.9821 88.1419C60.8565 87.8526 60.6642 87.6069 60.5155 87.3304C60.8411 87.4993 61.1718 87.6606 61.4897 87.8526C61.7718 88.1547 62.0512 88.6001 62.4076 88.6948C62.4819 88.7153 62.5588 88.6462 62.5742 88.5796C62.705 87.9652 62.6409 87.2818 62.6178 86.6495C62.6024 86.3167 62.5281 86.0504 62.4486 85.7817C62.7948 86.1656 63.1716 86.4959 63.5741 86.8312C64.4612 87.5813 65.4097 88.3441 66.4968 88.7921C66.8454 89.4756 67.2275 90.136 67.6607 90.7811C68.1453 91.521 68.7991 92.1558 69.2887 92.8905C69.2323 94.5186 69.1964 96.1518 69.1426 97.7825C69.1349 97.7799 69.1272 97.7774 69.1195 97.7748C69.0913 98.8576 69.0554 99.9456 69.0169 101.031C69.0272 101.031 69.0349 101.034 69.0452 101.036C69.0272 101.61 69.0118 102.186 68.9939 102.759C68.9887 102.756 68.9837 102.754 68.9785 102.751C68.9349 103.896 68.9042 105.032 68.8683 106.169C68.876 106.174 68.8837 106.176 68.8914 106.182C68.8503 107.6 68.8016 109.015 68.7657 110.434C68.7606 110.434 68.7554 110.431 68.7529 110.431C68.7324 111.253 68.6991 112.085 68.6914 112.906C68.6709 113.777 68.6349 114.645 68.617 115.515C68.5683 117.699 68.5196 119.885 68.4709 122.068C68.4709 122.068 68.4683 122.068 68.4657 122.068C68.4555 122.532 68.4478 122.995 68.4401 123.456C68.3683 126.699 68.2965 129.943 68.2248 133.183C67.571 132.377 66.948 131.555 66.325 130.734C66.3276 130.728 66.3301 130.723 66.3327 130.718C66.3071 130.703 66.2917 130.68 66.2789 130.654C66.2763 130.657 66.2712 130.659 66.266 130.662C65.4661 129.602 64.6893 128.532 63.9356 127.452C63.9407 127.449 63.9484 127.444 63.9561 127.439C63.9561 127.436 63.9561 127.436 63.9561 127.426C63.9484 127.431 63.9382 127.434 63.9279 127.442C62.8486 125.893 61.8051 124.321 60.8052 122.729C60.8155 122.724 60.8232 122.721 60.8309 122.716C60.7796 122.644 60.7411 122.552 60.6745 122.465C60.6668 122.468 60.6565 122.473 60.6488 122.475C60.3309 121.966 60.0182 121.449 59.7054 120.934C59.7157 120.927 59.7285 120.921 59.7387 120.914C59.4567 120.443 59.1824 119.956 58.8902 119.485C58.8748 119.493 58.8594 119.503 58.844 119.511C58.4466 118.838 58.0621 118.154 57.6749 117.476C57.6801 117.473 57.6851 117.471 57.6903 117.468C57.6134 117.358 57.5544 117.243 57.4903 117.123C57.4852 117.125 57.4826 117.125 57.4775 117.128C57.0339 116.347 56.5981 115.564 56.1648 114.775C56.1674 114.773 56.1725 114.773 56.1751 114.77C55.9264 114.309 55.67 113.848 55.4239 113.398C55.4213 113.398 55.4188 113.4 55.4162 113.403C55.265 113.124 55.1112 112.848 54.9625 112.569C52.4551 107.848 50.0451 103.048 47.9403 98.1485ZM101.379 99.9968C101.215 99.042 101.425 98.1434 101.636 97.227C101.72 97.4625 101.83 97.6878 101.966 97.9028C102.01 97.9642 102.087 97.9566 102.1 97.8746C102.369 96.5972 102.569 95.3634 103.043 94.1321C103.069 94.2012 103.097 94.2652 103.123 94.3317C103.084 94.5442 103.023 94.7567 103.002 94.9615C102.902 95.7934 102.864 96.6459 102.997 97.4702C103.099 98.1613 103.094 99.0906 103.479 99.6947C103.54 99.7946 103.674 99.7459 103.699 99.641C103.735 99.4464 103.776 99.2467 103.799 99.0522C103.843 98.7015 103.864 98.6759 103.843 98.9421C103.858 99.1828 103.871 99.4183 103.894 99.6512C103.33 100.616 102.728 101.561 102.133 102.508C101.807 101.694 101.533 100.865 101.379 99.9968Z" fill="black"/>
</svg>
